<svg width="500" height="278" viewBox="0 0 500 278" fill="none" xmlns="http://www.w3.org/2000/svg">
<path d="M85.8383 26.5229C85.8383 26.7801 85.6132 27.0051 85.356 27.0051C85.0988 27.0051 84.8738 27.2302 84.8738 27.4874C84.8738 27.7446 84.6488 27.9696 84.3916 27.9696C84.1344 27.9696 83.9093 28.1946 83.9093 28.4518C83.9093 28.709 83.6843 28.9341 83.4271 28.9341C83.1699 28.9341 82.9448 29.0948 82.9448 29.2877C82.9448 29.4806 82.3019 30.2843 81.4981 31.0881C80.6944 31.8596 80.0514 32.6634 80.0514 32.8241C80.0514 32.9849 79.4727 33.66 78.7655 34.3673C78.0582 35.0424 77.4795 35.7818 77.4795 35.9747C77.4795 36.1676 77.2544 36.3284 76.9973 36.3284C76.7401 36.3284 76.515 36.5534 76.515 36.8106C76.515 37.0678 76.29 37.2929 76.0328 37.2929C75.7756 37.2929 75.5505 37.5179 75.5505 37.7751C75.5505 38.0323 75.3255 38.2573 75.0683 38.2573C74.8111 38.2573 74.5861 38.4824 74.5861 38.7396C74.5861 38.9968 74.361 39.2218 74.1038 39.2218C73.8466 39.2218 73.6216 39.4468 73.6216 39.704C73.6216 39.9612 73.3965 40.1863 73.1394 40.1863C72.8822 40.1863 72.6571 40.4113 72.6571 40.6685C72.6571 40.9257 72.5285 41.1508 72.3678 41.1508C72.207 41.1508 71.9498 41.4722 71.8212 41.858C71.6926 42.2438 71.1783 42.919 70.696 43.369C70.1816 43.8191 69.7637 44.3657 69.7637 44.5907C69.7637 44.8158 69.5386 45.0087 69.2815 45.0087C69.0243 45.0087 68.7992 45.2337 68.7992 45.4909C68.7992 45.7481 68.5742 45.9731 68.317 45.9731C68.0598 45.9731 67.8347 46.1339 67.8347 46.3268C67.8347 46.5197 67.1918 47.3234 66.388 48.1271C65.5843 48.8987 64.9413 49.7667 64.9413 50.0239C64.9413 50.2811 64.7163 50.474 64.4591 50.474C64.2019 50.474 63.9768 50.6991 63.9768 50.9563C63.9768 51.2134 63.8482 51.4385 63.6553 51.4385C63.4946 51.4385 63.3339 51.6635 63.3339 51.9207C63.3339 52.1779 63.1088 52.403 62.8516 52.403C62.5944 52.403 62.3694 52.628 62.3694 52.8852C62.3694 53.1424 62.1443 53.3674 61.8871 53.3674C61.63 53.3674 61.4049 53.5925 61.4049 53.8497C61.4049 54.1069 61.1799 54.3319 60.9227 54.3319C60.6655 54.3319 60.4404 54.557 60.4404 54.8142C60.4404 55.0713 60.2154 55.2964 59.9582 55.2964C59.701 55.2964 59.476 55.5214 59.476 55.7786C59.476 56.0358 59.2509 56.2609 58.9937 56.2609C58.7044 56.2609 58.5115 56.5502 58.5115 57.0646C58.5115 57.579 58.3186 57.8683 58.0292 57.8683C57.7721 57.8683 57.547 58.0934 57.547 58.3506C57.547 58.6078 57.322 58.8328 57.0648 58.8328C56.8076 58.8328 56.5825 59.0578 56.5825 59.315C56.5825 59.5722 56.3575 59.7973 56.1003 59.7973C55.8431 59.7973 55.6181 59.958 55.6181 60.1188C55.6181 60.3117 55.2644 60.7939 54.8143 61.2118C54.3642 61.6298 54.0106 62.112 54.0106 62.3371C54.0106 62.53 53.7856 62.6907 53.5284 62.6907C53.2712 62.6907 53.0461 62.9157 53.0461 63.1729C53.0461 63.4301 52.8211 63.6552 52.5639 63.6552C52.3067 63.6552 52.0816 63.8802 52.0816 64.1374C52.0816 64.3946 51.8566 64.6196 51.5994 64.6196C51.3422 64.6196 51.1172 64.8447 51.1172 65.1019C51.1172 65.3591 50.8278 65.8413 50.4742 66.1307C50.1205 66.4521 49.8312 66.8058 49.8312 66.9665C49.8312 67.1273 49.2525 67.8346 48.5452 68.5097C47.838 69.217 47.2593 69.8921 47.2593 70.085C47.2593 70.2458 47.0342 70.4065 46.777 70.4065C46.5198 70.4065 46.2948 70.6315 46.2948 70.8887C46.2948 71.1459 46.0698 71.371 45.8126 71.371C45.5554 71.371 45.3303 71.596 45.3303 71.8532C45.3303 72.1104 45.1053 72.3354 44.8481 72.3354C44.5909 72.3354 44.3658 72.5605 44.3658 72.8177C44.3658 73.0749 44.2373 73.2999 44.0444 73.2999C43.8836 73.2999 43.6586 73.6536 43.53 74.1037C43.4335 74.5537 43.1442 74.9074 42.887 74.9074C42.6298 74.9074 42.4369 75.1324 42.4369 75.3896C42.4369 75.6468 42.2119 75.8719 41.9547 75.8719C41.6975 75.8719 41.4724 76.0969 41.4724 76.3541C41.4724 76.6113 41.2474 76.8363 40.9902 76.8363C40.733 76.8363 40.5079 77.0614 40.5079 77.3186C40.5079 77.5758 40.3794 77.8008 40.1865 77.8008C40.0257 77.8008 39.865 78.0258 39.865 78.283C39.865 78.5402 39.6399 78.7653 39.3827 78.7653C39.1255 78.7653 38.9005 78.9903 38.9005 79.2475C38.9005 79.5047 38.6754 79.7298 38.4183 79.7298C38.1611 79.7298 37.936 79.9548 37.936 80.212C37.936 80.4692 37.7431 80.6942 37.4859 80.6942C37.2287 80.6942 36.9394 81.0479 36.8429 81.498C36.7143 81.948 36.4893 82.3017 36.3286 82.3017C36.1357 82.3017 36.0071 82.5267 36.0071 82.7839C36.0071 83.0411 35.782 83.2662 35.5248 83.2662C35.2676 83.2662 35.0426 83.4912 35.0426 83.7484C35.0426 84.0056 34.8175 84.2306 34.5604 84.2306C34.3032 84.2306 34.0781 84.52 34.0781 84.8736C34.0781 85.2273 33.8531 85.5166 33.5959 85.5166C33.3387 85.5166 33.1136 85.7416 33.1136 85.9988C33.1136 86.256 32.8886 86.4811 32.6314 86.4811C32.3742 86.4811 32.1492 86.7061 32.1492 86.9633C32.1492 87.2205 31.9241 87.4456 31.6669 87.4456C31.4097 87.4456 31.1847 87.6706 31.1847 87.9278C31.1847 88.185 31.0561 88.41 30.8632 88.41C30.7025 88.41 30.4774 88.7637 30.3488 89.2138C30.2524 89.6638 29.963 90.0175 29.7058 90.0175C29.4486 90.0175 29.2557 90.2425 29.2557 90.4997C29.2557 90.7569 29.0307 90.982 28.7735 90.982C28.5163 90.982 28.2913 91.207 28.2913 91.4642C28.2913 91.7214 28.0662 91.9464 27.809 91.9464C27.5518 91.9464 27.3268 92.1715 27.3268 92.4287C27.3268 92.6859 27.1017 92.9109 26.8446 92.9109C26.5874 92.9109 26.3623 93.136 26.3623 93.3931C26.3623 93.6503 26.2337 93.8754 26.0408 93.8754C25.8801 93.8754 25.7193 94.1004 25.7193 94.3576C25.7193 94.6148 25.4943 94.8399 25.2371 94.8399C24.9799 94.8399 24.7549 95.0649 24.7549 95.3221C24.7549 95.5793 24.5298 95.8043 24.2726 95.8043C24.0154 95.8043 23.7904 96.0294 23.7904 96.2866C23.7904 96.5438 23.5653 96.7688 23.3081 96.7688C23.051 96.7688 22.8259 96.9617 22.8259 97.2189C22.8259 97.4761 22.408 98.1191 21.8614 98.6335C21.347 99.18 20.897 99.7587 20.897 99.9516C20.897 100.144 20.6719 100.305 20.4147 100.305C20.1575 100.305 19.9325 100.53 19.9325 100.787C19.9325 101.045 19.7074 101.27 19.4502 101.27C19.1931 101.27 18.968 101.495 18.968 101.752C18.968 102.009 18.743 102.234 18.4858 102.234C18.2286 102.234 18.0035 102.459 18.0035 102.716C18.0035 102.974 17.7785 103.199 17.5213 103.199C17.2641 103.199 17.0391 103.424 17.0391 103.681C17.0391 103.938 16.9105 104.163 16.7176 104.163C16.5568 104.163 16.3961 104.388 16.3961 104.645C16.3961 104.903 16.171 105.128 15.9138 105.128C15.6566 105.128 15.4316 105.353 15.4316 105.61C15.4316 105.867 15.1423 106.349 14.7886 106.639C14.435 106.96 14.1456 107.378 14.1456 107.603C14.1456 107.828 13.9206 108.021 13.6634 108.021C13.4062 108.021 13.1812 108.246 13.1812 108.503C13.1812 108.76 12.9561 108.985 12.6989 108.985C12.4417 108.985 12.2167 109.146 12.2167 109.339C12.2167 109.532 11.638 110.271 10.9307 110.947C10.2234 111.654 9.64475 112.329 9.64475 112.522C9.64475 112.683 9.45185 112.843 9.19466 112.843C8.93747 112.843 8.64813 113.197 8.55168 113.647C8.42308 114.097 8.19804 114.451 8.03729 114.451C7.8444 114.451 7.7158 114.676 7.7158 114.933C7.7158 115.19 7.49076 115.415 7.23356 115.415C6.97637 115.415 6.75132 115.64 6.75132 115.898C6.75132 116.155 6.52628 116.38 6.26909 116.38C6.01189 116.38 5.78685 116.605 5.78685 116.862C5.78685 117.119 5.56181 117.344 5.30461 117.344C5.04742 117.344 4.82237 117.569 4.82237 117.827C4.82237 118.084 4.59733 118.309 4.34014 118.309C4.08294 118.309 3.8579 118.534 3.8579 118.791C3.8579 119.048 3.63286 119.273 3.37566 119.273C3.11847 119.273 2.89342 119.434 2.89342 119.627C2.89342 119.852 2.53978 120.334 2.12184 120.72C1.70391 121.106 1.25382 121.717 1.15737 122.102C1.02877 122.456 0.739431 122.842 0.482237 122.938C0.225044 123.035 0 123.485 0 123.935V124.739H28.2913C46.9378 124.739 56.5825 124.642 56.5825 124.417C56.5825 124.224 56.8076 124.096 57.0648 124.096C57.322 124.096 57.547 123.871 57.547 123.613C57.547 123.356 57.7721 123.131 58.0292 123.131C58.2864 123.131 58.5115 122.906 58.5115 122.649C58.5115 122.392 58.7365 122.167 58.9937 122.167C59.2509 122.167 59.476 121.942 59.476 121.684C59.476 121.427 59.701 121.202 59.9582 121.202C60.2154 121.202 60.4404 120.977 60.4404 120.72C60.4404 120.463 60.6655 120.238 60.9227 120.238C61.1799 120.238 61.4049 120.013 61.4049 119.755C61.4049 119.498 61.63 119.273 61.8871 119.273C62.1443 119.273 62.3694 119.048 62.3694 118.791C62.3694 118.534 62.5301 118.309 62.6909 118.309C62.8838 118.309 63.0124 118.116 63.0124 117.859C63.0124 117.601 64.1054 116.316 65.4236 114.997C66.7417 113.647 67.8347 112.458 67.8347 112.329C67.8347 112.2 68.9278 111.043 70.2459 109.725C71.564 108.439 72.6571 107.217 72.6571 107.057C72.6571 106.864 72.8822 106.735 73.1394 106.735C73.4287 106.735 73.6216 106.446 73.6216 105.931C73.6216 105.417 73.8145 105.128 74.1038 105.128C74.361 105.128 74.5861 104.903 74.5861 104.645C74.5861 104.388 74.8111 104.163 75.0683 104.163C75.3255 104.163 75.5505 103.938 75.5505 103.681C75.5505 103.424 75.7756 103.199 76.0328 103.199C76.29 103.199 76.515 102.974 76.515 102.716C76.515 102.459 76.7401 102.234 76.9973 102.234C77.2544 102.234 77.4795 102.073 77.4795 101.881C77.4795 101.688 78.2832 100.723 79.2477 99.7908C80.2122 98.8264 81.0159 97.9262 81.0159 97.7654C81.0159 97.6047 81.466 97.026 81.9804 96.5116C82.5269 95.9651 82.9448 95.3864 82.9448 95.1935C82.9448 95.0006 83.1699 94.8399 83.4271 94.8399C83.6843 94.8399 83.9093 94.6148 83.9093 94.3576C83.9093 94.1004 84.1344 93.8754 84.3916 93.8754C84.6488 93.8754 84.8738 93.6503 84.8738 93.3931C84.8738 93.136 85.0988 92.9109 85.356 92.9109C85.6132 92.9109 85.8383 92.6859 85.8383 92.4287C85.8383 92.1715 86.0633 91.9464 86.3205 91.9464C86.5777 91.9464 86.8027 91.7214 86.8027 91.4642C86.8027 91.207 87.0278 90.982 87.285 90.982C87.5422 90.982 87.7672 90.7569 87.7672 90.4997C87.7672 90.2425 87.9923 90.0175 88.2495 90.0175C88.5067 90.0175 88.7317 89.8567 88.7317 89.6638C88.7317 89.471 89.1818 88.8923 89.6962 88.3457C90.2427 87.8313 90.6606 87.2527 90.6606 87.0919C90.6606 86.9312 91.4644 86.031 92.4289 85.0665C93.3933 84.1342 94.1971 83.1697 94.1971 82.9768C94.1971 82.7839 94.4221 82.6232 94.6793 82.6232C94.9365 82.6232 95.1615 82.3981 95.1615 82.1409C95.1615 81.8837 95.3866 81.6587 95.6438 81.6587C95.901 81.6587 96.126 81.4337 96.126 81.1765C96.126 80.9193 96.3511 80.6942 96.6082 80.6942C96.8654 80.6942 97.0905 80.4692 97.0905 80.212C97.0905 79.9548 97.2834 79.7298 97.5406 79.7298C97.7978 79.7298 98.0871 79.3761 98.1836 78.926C98.3121 78.4759 98.5372 78.1223 98.6979 78.1223C98.8908 78.1223 99.0194 77.8973 99.0194 77.6401C99.0194 77.3829 99.2445 77.1578 99.5017 77.1578C99.7589 77.1578 99.9839 76.8685 99.9839 76.5148C99.9839 76.1612 100.209 75.8719 100.466 75.8719C100.723 75.8719 100.948 75.6468 100.948 75.3896C100.948 75.1324 101.173 74.9074 101.431 74.9074C101.688 74.9074 101.913 74.6823 101.913 74.4251C101.913 74.1679 102.138 73.9429 102.395 73.9429C102.652 73.9429 102.877 73.7179 102.877 73.4607C102.877 73.2035 103.102 72.9784 103.36 72.9784C103.617 72.9784 103.842 72.7534 103.842 72.4962C103.842 72.239 104.067 72.014 104.324 72.014C104.581 72.014 104.806 71.8532 104.806 71.6603C104.806 71.4674 105.449 70.6637 106.253 69.86C107.057 69.0884 107.7 68.2847 107.7 68.1239C107.7 67.931 108.053 67.4809 108.503 67.063C108.954 66.645 109.307 66.1628 109.307 65.9378C109.307 65.7449 109.532 65.5841 109.789 65.5841C110.047 65.5841 110.272 65.3591 110.272 65.1019C110.272 64.8447 110.497 64.6196 110.754 64.6196C111.011 64.6196 111.236 64.3946 111.236 64.1374C111.236 63.8802 111.461 63.6552 111.718 63.6552C111.976 63.6552 112.201 63.4301 112.201 63.1729C112.201 62.9157 112.426 62.6907 112.683 62.6907C112.94 62.6907 113.165 62.4657 113.165 62.2085C113.165 61.9513 113.39 61.7262 113.647 61.7262C113.904 61.7262 114.13 61.5655 114.13 61.3726C114.13 61.1797 114.355 60.826 114.612 60.5689C114.869 60.2795 115.094 59.5722 115.094 58.9614C115.094 58.1898 114.933 57.8683 114.612 57.8683C114.322 57.8683 114.13 57.579 114.13 57.0646C114.13 56.5502 113.937 56.2609 113.647 56.2609C113.39 56.2609 113.165 56.0358 113.165 55.7786C113.165 55.5214 112.94 55.2964 112.683 55.2964C112.426 55.2964 112.201 55.0713 112.201 54.8142C112.201 54.557 111.976 54.3319 111.718 54.3319C111.461 54.3319 111.236 54.1069 111.236 53.8497C111.236 53.5925 111.011 53.3674 110.754 53.3674C110.497 53.3674 110.272 53.1424 110.272 52.8852C110.272 52.628 110.047 52.403 109.789 52.403C109.532 52.403 109.307 52.1779 109.307 51.9207C109.307 51.6635 109.179 51.4385 108.986 51.4385C108.825 51.4385 108.664 51.2134 108.664 50.9563C108.664 50.6991 108.439 50.474 108.182 50.474C107.925 50.474 107.7 50.249 107.7 49.9918C107.7 49.7346 107.475 49.5095 107.217 49.5095C106.96 49.5095 106.735 49.3166 106.735 49.0594C106.735 48.8023 106.092 47.9342 105.289 47.1626C104.485 46.3589 103.842 45.5552 103.842 45.3623C103.842 45.1694 103.617 45.0087 103.36 45.0087C103.102 45.0087 102.877 44.7836 102.877 44.5264C102.877 44.2692 102.652 44.0442 102.395 44.0442C102.138 44.0442 101.913 43.8191 101.913 43.5619C101.913 43.3047 101.688 43.0797 101.431 43.0797C101.173 43.0797 100.948 42.8547 100.948 42.5975C100.948 42.3403 100.723 42.1152 100.466 42.1152C100.209 42.1152 99.9839 41.8259 99.9839 41.4722C99.9839 41.1186 99.7589 40.8293 99.5017 40.8293C99.2445 40.8293 99.0194 40.6042 99.0194 40.347C99.0194 40.0898 98.8908 39.8648 98.6979 39.8648C98.5372 39.8648 98.3121 39.5111 98.1836 39.0611C98.0871 38.611 97.7978 38.2573 97.5406 38.2573C97.2834 38.2573 97.0905 38.0323 97.0905 37.7751C97.0905 37.5179 96.8654 37.2929 96.6082 37.2929C96.3511 37.2929 96.126 37.0678 96.126 36.8106C96.126 36.5534 95.901 36.3284 95.6438 36.3284C95.3866 36.3284 95.1615 36.1033 95.1615 35.8461C95.1615 35.5889 94.9365 35.3639 94.6793 35.3639C94.4221 35.3639 94.1971 35.2032 94.1971 35.0103C94.1971 34.8174 93.2004 33.66 91.9466 32.4383C90.7249 31.2167 89.6962 30.0593 89.6962 29.8985C89.6962 29.7057 89.5033 29.5771 89.2461 29.5771C88.9889 29.5771 88.6995 29.2234 88.6031 28.7733C88.4745 28.3232 88.2495 27.9696 88.0887 27.9696C87.8958 27.9696 87.7672 27.7446 87.7672 27.4874C87.7672 27.2302 87.5422 27.0051 87.285 27.0051C87.0278 27.0051 86.8027 26.7801 86.8027 26.5229C86.8027 26.2657 86.5777 26.0406 86.3205 26.0406C86.0633 26.0406 85.8383 26.2657 85.8383 26.5229Z" fill="#FFFDFD"/>
<path d="M111.6 0.615032C111.6 0.943081 111.442 1.23012 111.205 1.23012C110.611 1.23012 109.225 2.58332 109.225 3.15741C109.225 3.44445 108.789 3.69049 108.235 3.69049C107.641 3.69049 107.245 3.93652 107.245 4.26457C107.245 4.59262 106.453 5.69978 105.463 6.68393C104.473 7.70908 103.681 8.73423 103.681 8.98027C103.681 9.2263 103.444 9.43133 103.167 9.43133C102.889 9.43133 102.375 9.80039 101.979 10.2515C101.622 10.7025 101.028 11.0716 100.712 11.0716C100.395 11.0716 100.118 11.3586 100.118 11.6867C100.118 12.0147 99.9197 12.3018 99.6821 12.3018C99.1278 12.3018 94.5743 17.0995 94.5743 17.6325C94.5743 17.8786 94.4159 18.0426 94.1783 18.0426C93.5844 18.0426 91.0107 20.913 90.9315 21.6511C90.8127 23.1274 91.0503 23.7834 91.6046 23.7834C91.9214 23.7834 92.1986 24.0705 92.1986 24.3985C92.1986 24.7266 92.4757 25.0136 92.7925 25.0136C93.1093 25.0136 93.3864 25.2187 93.3864 25.4237C93.3864 25.6697 93.822 26.2848 94.3763 26.8179C94.9307 27.351 95.3662 27.9661 95.3662 28.2531C95.3662 28.4991 95.6434 28.7042 95.9602 28.7042C96.2769 28.7042 96.5541 28.9912 96.5541 29.3193C96.5541 29.6473 96.8313 29.9344 97.148 29.9344C97.4648 29.9344 97.742 30.2214 97.742 30.5494C97.742 30.8775 98.0191 31.1645 98.3359 31.1645C98.6527 31.1645 98.9298 31.4516 98.9298 31.7796C98.9298 32.1077 99.207 32.3947 99.5238 32.3947C99.8405 32.3947 100.118 32.6818 100.118 33.0098C100.118 33.3379 100.395 33.6249 100.712 33.6249C101.028 33.6249 101.306 33.9119 101.306 34.24C101.306 34.568 101.583 34.8551 101.9 34.8551C102.216 34.8551 102.493 35.1421 102.493 35.4702C102.493 35.7982 102.771 36.0853 103.087 36.0853C103.404 36.0853 103.681 36.3723 103.681 36.7004C103.681 37.0284 103.958 37.3154 104.275 37.3154C104.592 37.3154 104.869 37.6025 104.869 37.9305C104.869 38.2586 105.067 38.5456 105.265 38.5456C105.74 38.5456 108.433 41.129 108.433 41.5801C108.433 42.0311 109.502 43.0563 109.977 43.0563C110.215 43.0563 110.413 43.2613 110.413 43.5074C110.413 43.7944 111.046 44.6145 111.798 45.3936C112.551 46.1728 113.184 47.0339 113.184 47.3619C113.184 47.69 113.461 47.977 113.778 47.977C114.095 47.977 114.372 48.2641 114.372 48.5921C114.372 48.9202 114.649 49.2072 114.966 49.2072C115.283 49.2072 115.56 49.4122 115.56 49.6583C115.56 49.9453 115.996 50.5604 116.55 51.0935C117.104 51.6266 117.54 52.2416 117.54 52.4877C117.54 52.6927 117.817 52.8977 118.134 52.8977C118.451 52.8977 118.728 53.1848 118.728 53.5128C118.728 53.8409 119.005 54.1279 119.322 54.1279C119.638 54.1279 119.916 54.415 119.916 54.743C119.916 55.0711 120.114 55.3581 120.351 55.3581C120.905 55.3581 126.647 61.304 126.647 61.8781C126.647 62.1241 126.924 62.3291 127.241 62.3291C127.558 62.3291 127.835 62.6162 127.835 62.9442C127.835 63.2723 128.112 63.5593 128.429 63.5593C128.745 63.5593 129.023 63.8464 129.023 64.1744C129.023 64.5025 129.3 64.7895 129.617 64.7895C129.933 64.7895 130.21 65.0765 130.21 65.4046C130.21 65.7326 130.488 66.0197 130.804 66.0197C131.121 66.0197 131.398 66.3067 131.398 66.6348C131.398 66.9628 131.675 67.2499 131.992 67.2499C132.309 67.2499 132.586 67.5369 132.586 67.8649C132.586 68.193 132.863 68.48 133.18 68.48C133.497 68.48 133.774 68.7671 133.774 69.0951C133.774 69.4232 134.051 69.7102 134.368 69.7102C134.685 69.7102 134.962 69.9973 134.962 70.3253C134.962 70.6534 135.239 70.9404 135.556 70.9404C135.873 70.9404 136.15 71.1454 136.15 71.3915C136.15 71.6375 138.011 73.7698 140.307 76.1482C142.604 78.4855 144.465 80.6998 144.465 81.0279C144.465 81.3559 144.742 81.602 145.059 81.602C145.376 81.602 145.653 81.889 145.653 82.2171C145.653 82.5451 145.93 82.8322 146.247 82.8322C146.563 82.8322 146.841 83.1192 146.841 83.4472C146.841 83.7753 147.118 84.0623 147.435 84.0623C147.751 84.0623 148.029 84.2674 148.029 84.5134C148.029 85.0465 152.701 89.8032 153.216 89.8032C153.414 89.8032 153.572 90.0902 153.572 90.4183C153.572 90.7463 153.849 91.0334 154.166 91.0334C154.483 91.0334 154.76 91.1974 154.76 91.4434C154.76 91.6485 156.027 93.1247 157.532 94.6829C159.076 96.2411 160.303 97.7174 160.303 97.9634C160.303 98.2094 160.58 98.4145 160.897 98.4145C161.214 98.4145 161.491 98.7015 161.491 99.0295C161.491 99.3576 161.768 99.6446 162.085 99.6446C162.402 99.6446 162.679 99.9317 162.679 100.26C162.679 100.588 162.956 100.875 163.273 100.875C163.59 100.875 163.867 101.162 163.867 101.49C163.867 101.818 164.144 102.105 164.461 102.105C164.778 102.105 165.055 102.392 165.055 102.72C165.055 103.048 165.332 103.335 165.649 103.335C165.965 103.335 166.243 103.622 166.243 103.95C166.243 104.278 166.52 104.565 166.837 104.565C167.153 104.565 167.43 104.852 167.43 105.18C167.43 105.509 167.708 105.796 168.024 105.796C168.341 105.796 168.618 106.083 168.618 106.411C168.618 106.739 168.895 107.026 169.212 107.026C169.529 107.026 169.806 107.231 169.806 107.477C169.806 107.723 170.361 108.461 170.994 109.158C171.667 109.814 172.182 110.634 172.182 110.962C172.182 111.29 172.419 111.536 172.736 111.536C173.489 111.536 178.121 116.334 178.121 117.113C178.121 117.441 178.398 117.687 178.715 117.687C179.032 117.687 179.309 117.892 179.309 118.138C179.309 118.384 180.299 119.615 181.487 120.804C182.675 122.034 183.665 123.223 183.665 123.428C183.665 123.674 183.942 123.838 184.259 123.838C184.575 123.838 184.853 124.002 184.853 124.248C184.853 124.535 192.257 124.658 206.234 124.658C220.212 124.658 227.616 124.535 227.616 124.248C227.616 124.002 227.339 123.838 227.022 123.838C226.705 123.838 226.428 123.551 226.428 123.223C226.428 122.895 226.151 122.608 225.834 122.608C225.517 122.608 225.24 122.321 225.24 121.993C225.24 121.665 224.963 121.378 224.646 121.378C224.329 121.378 224.052 121.091 224.052 120.763C224.052 120.435 223.775 120.148 223.458 120.148C223.142 120.148 222.864 119.943 222.864 119.697C222.864 119.41 222.429 118.794 221.875 118.261C221.32 117.728 220.885 117.113 220.885 116.867C220.885 116.662 220.607 116.457 220.291 116.457C219.974 116.457 219.697 116.17 219.697 115.842C219.697 115.514 219.42 115.227 219.103 115.227C218.786 115.227 218.509 114.94 218.509 114.612C218.509 114.284 218.232 113.997 217.915 113.997C217.598 113.997 217.321 113.71 217.321 113.382C217.321 113.054 217.044 112.767 216.727 112.767C216.41 112.767 216.133 112.48 216.133 112.151C216.133 111.823 215.856 111.536 215.539 111.536C215.222 111.536 214.945 111.249 214.945 110.921C214.945 110.593 214.668 110.306 214.351 110.306C214.035 110.306 213.757 110.019 213.757 109.691C213.757 109.363 213.48 109.076 213.164 109.076C212.847 109.076 212.57 108.871 212.57 108.625C212.57 108.379 211.5 107.108 210.233 105.755C208.927 104.442 207.699 103.335 207.462 103.335C207.224 103.335 207.026 103.048 207.026 102.72C207.026 102.392 206.749 102.105 206.432 102.105C206.115 102.105 205.838 101.859 205.838 101.531C205.838 101.203 204.769 99.8497 203.463 98.4965C202.156 97.1433 201.087 95.8311 201.087 95.585C201.087 95.339 200.81 95.134 200.493 95.134C200.176 95.134 199.899 94.8469 199.899 94.5189C199.899 94.1908 199.622 93.9038 199.305 93.9038C198.988 93.9038 198.711 93.6167 198.711 93.2887C198.711 92.9607 198.434 92.6736 198.117 92.6736C197.8 92.6736 197.523 92.3866 197.523 92.0585C197.523 91.7305 197.246 91.4434 196.929 91.4434C196.612 91.4434 196.335 91.1564 196.335 90.8283C196.335 90.5003 196.058 90.2132 195.741 90.2132C195.425 90.2132 195.147 89.9262 195.147 89.5982C195.147 89.2701 194.87 88.9831 194.554 88.9831C194.237 88.9831 193.96 88.696 193.96 88.368C193.96 88.0399 193.682 87.7529 193.366 87.7529C193.049 87.7529 192.772 87.4658 192.772 87.1378C192.772 86.8097 192.495 86.5227 192.178 86.5227C191.861 86.5227 191.584 86.3177 191.584 86.0716C191.584 85.8256 190.871 84.8825 190 84.0213C189.129 83.1192 188.416 82.2581 188.416 82.012C188.416 81.807 188.139 81.602 187.822 81.602C187.505 81.602 187.228 81.3149 187.228 80.9869C187.228 80.6588 186.951 80.3718 186.634 80.3718C186.318 80.3718 186.04 80.0848 186.04 79.7567C186.04 79.4287 185.763 79.1416 185.446 79.1416C185.13 79.1416 184.853 78.8546 184.853 78.5265C184.853 78.1985 184.575 77.9114 184.259 77.9114C183.942 77.9114 183.665 77.6244 183.665 77.2963C183.665 76.9683 183.388 76.6812 183.071 76.6812C182.754 76.6812 182.477 76.3942 182.477 76.0662C182.477 75.7381 182.2 75.4511 181.883 75.4511C181.566 75.4511 181.289 75.164 181.289 74.836C181.289 74.5079 181.012 74.2209 180.695 74.2209C180.378 74.2209 180.101 73.9338 180.101 73.6058C180.101 73.2777 179.824 72.9907 179.507 72.9907C179.19 72.9907 178.913 72.7037 178.913 72.3756C178.913 72.0476 178.755 71.7605 178.517 71.7605C178.319 71.7605 178.042 71.3095 177.884 70.7354C177.765 70.1613 177.409 69.7102 177.092 69.7102C176.775 69.7102 176.537 69.4232 176.537 69.0951C176.537 68.7671 176.26 68.48 175.944 68.48C175.627 68.48 175.35 68.193 175.35 67.8649C175.35 67.5369 175.072 67.2499 174.756 67.2499C174.439 67.2499 174.162 66.9628 174.162 66.6348C174.162 66.3067 173.885 66.0197 173.568 66.0197C173.251 66.0197 172.974 65.7326 172.974 65.4046C172.974 65.0765 172.697 64.7895 172.38 64.7895C172.063 64.7895 171.786 64.5025 171.786 64.1744C171.786 63.8464 171.588 63.5593 171.35 63.5593C171.113 63.5593 170.677 63.3133 170.361 62.9852C170.044 62.6572 169.806 62.2061 169.806 61.9601C169.806 61.714 169.529 61.509 169.212 61.509C168.895 61.509 168.618 61.222 168.618 60.8939C168.618 60.5659 168.341 60.2788 168.024 60.2788C167.708 60.2788 167.43 59.9918 167.43 59.6637C167.43 59.3357 167.153 59.0486 166.837 59.0486C166.52 59.0486 166.243 58.7616 166.243 58.4336C166.243 58.1055 165.965 57.8185 165.649 57.8185C165.332 57.8185 165.055 57.5314 165.055 57.2034C165.055 56.8753 164.778 56.5883 164.461 56.5883C164.144 56.5883 163.867 56.3012 163.867 55.9732C163.867 55.6451 163.59 55.3581 163.273 55.3581C162.956 55.3581 162.679 55.0711 162.679 54.743C162.679 54.415 162.402 54.1279 162.085 54.1279C161.768 54.1279 161.491 53.8409 161.491 53.5128C161.491 53.1848 161.214 52.8977 160.897 52.8977C160.58 52.8977 160.303 52.6927 160.303 52.4877C160.303 52.2416 159.868 51.6266 159.313 51.0935C158.759 50.5604 158.323 49.9453 158.323 49.6583C158.323 49.4122 158.046 49.2072 157.729 49.2072C157.413 49.2072 157.136 48.9202 157.136 48.5921C157.136 48.2641 156.858 47.977 156.542 47.977C156.225 47.977 155.948 47.69 155.948 47.3619C155.948 47.0339 155.671 46.7468 155.354 46.7468C155.037 46.7468 154.76 46.4598 154.76 46.1317C154.76 45.8037 154.483 45.5167 154.166 45.5167C153.849 45.5167 153.572 45.2296 153.572 44.9016C153.572 44.5735 153.295 44.2865 152.978 44.2865C152.661 44.2865 152.384 43.9994 152.384 43.6714C152.384 43.3433 152.107 43.0563 151.79 43.0563C151.473 43.0563 151.196 42.7692 151.196 42.4412C151.196 42.1132 150.919 41.8261 150.602 41.8261C150.285 41.8261 150.008 41.6211 150.008 41.375C150.008 41.129 149.494 40.3909 148.82 39.6938C148.187 39.0377 147.633 38.2176 147.633 37.8895C147.633 37.5615 147.355 37.3154 147.039 37.3154C146.722 37.3154 146.445 37.0284 146.445 36.7004C146.445 36.3723 146.168 36.0853 145.851 36.0853C145.534 36.0853 145.257 35.7982 145.257 35.4702C145.257 35.1421 144.98 34.8551 144.663 34.8551C144.346 34.8551 144.069 34.568 144.069 34.24C144.069 33.9119 143.792 33.6249 143.475 33.6249C143.158 33.6249 142.881 33.3379 142.881 33.0098C142.881 32.6818 142.604 32.3947 142.287 32.3947C141.97 32.3947 141.693 32.1077 141.693 31.7796C141.693 31.4516 141.416 31.1645 141.099 31.1645C140.783 31.1645 140.505 30.8775 140.505 30.5494C140.505 30.2214 140.307 29.9344 140.07 29.9344C139.832 29.9344 139.119 29.4013 138.486 28.7452C137.852 28.0891 137.338 27.351 137.338 27.1049C137.338 26.8589 137.061 26.6539 136.744 26.6539C136.427 26.6539 136.15 26.3668 136.15 26.0388C136.15 25.7107 135.873 25.4237 135.556 25.4237C135.239 25.4237 134.962 25.1366 134.962 24.8086C134.962 24.4806 134.685 24.1935 134.368 24.1935C134.051 24.1935 133.774 23.9065 133.774 23.5784C133.774 23.2504 133.497 22.9633 133.18 22.9633C132.863 22.9633 132.586 22.6763 132.586 22.3482C132.586 22.0202 132.309 21.7331 131.992 21.7331C131.675 21.7331 131.398 21.4461 131.398 21.1181C131.398 20.79 131.121 20.503 130.804 20.503C130.488 20.503 130.21 20.2159 130.21 19.8879C130.21 19.5598 129.933 19.2728 129.617 19.2728C129.3 19.2728 129.023 18.9857 129.023 18.6577C129.023 18.3296 128.745 18.0426 128.429 18.0426C128.112 18.0426 127.835 17.7556 127.835 17.4275C127.835 17.0995 127.558 16.8124 127.241 16.8124C126.924 16.8124 126.647 16.5254 126.647 16.1973C126.647 15.8693 126.37 15.5822 126.053 15.5822C125.736 15.5822 125.459 15.3772 125.459 15.1312C125.459 14.8851 124.746 13.942 123.875 13.0809C123.004 12.1787 122.291 11.3176 122.291 11.0716C122.291 10.8665 122.133 10.6615 121.895 10.6615C121.697 10.6615 121.143 10.2925 120.707 9.84139C120.272 9.39033 119.916 8.81624 119.916 8.61121C119.916 8.36518 119.638 8.20115 119.322 8.20115C119.005 8.20115 118.728 7.91411 118.728 7.58606C118.728 7.25801 118.451 6.97097 118.134 6.97097C117.817 6.97097 117.54 6.68393 117.54 6.35588C117.54 6.02783 117.263 5.74079 116.946 5.74079C116.59 5.74079 116.352 5.37173 116.352 4.71564C116.352 4.05954 116.114 3.69049 115.758 3.69049C115.441 3.69049 115.164 3.40344 115.164 3.0754C115.164 2.74735 114.887 2.4603 114.57 2.4603C114.253 2.4603 113.976 2.17326 113.976 1.84521C113.976 1.51717 113.699 1.23012 113.382 1.23012C113.066 1.23012 112.788 0.943081 112.788 0.615032C112.788 0.286984 112.511 -5.85318e-05 112.194 -5.85318e-05C111.878 -5.85318e-05 111.6 0.286984 111.6 0.615032ZM117.54 15.1722C117.54 15.3772 117.263 15.5822 116.946 15.5822C116.629 15.5822 116.352 15.3772 116.352 15.1722C116.352 14.9261 116.629 14.7621 116.946 14.7621C117.263 14.7621 117.54 14.9261 117.54 15.1722ZM163.867 64.3794C163.867 64.5845 163.708 64.7895 163.471 64.7895C163.273 64.7895 163.075 64.5845 163.075 64.3794C163.075 64.1334 163.273 63.9694 163.471 63.9694C163.708 63.9694 163.867 64.1334 163.867 64.3794Z" fill="#3C6ADF"/>
<path d="M99.6945 90.4997C99.5659 90.9498 99.3409 91.3035 99.1801 91.3035C98.9872 91.3035 98.8586 93.6182 98.8586 97.3797C98.8586 102.491 98.9229 103.488 99.3409 103.649C99.5981 103.745 99.8231 104.035 99.8231 104.324C99.8231 104.581 100.048 104.806 100.305 104.806C100.563 104.806 100.788 104.935 100.788 105.128C100.788 105.321 102.717 105.449 105.931 105.449C109.146 105.449 111.075 105.321 111.075 105.128C111.075 104.935 112.104 104.806 113.487 104.806H115.898V97.7976C115.898 91.1749 115.866 90.7569 115.255 90.2425C114.676 89.7603 113.744 89.696 107.25 89.696H99.8874L99.6945 90.4997Z" fill="#3C6ADF"/>
<path d="M121.363 90.1782C121.363 90.4354 121.138 90.6605 120.881 90.6605C120.463 90.6605 120.398 91.6571 120.398 97.7333C120.398 104.581 120.431 104.806 121.041 104.806C121.395 104.806 121.684 104.935 121.684 105.128C121.684 105.321 124.192 105.449 128.596 105.449C133.001 105.449 135.509 105.321 135.509 105.128C135.509 104.935 135.734 104.806 135.991 104.806C136.248 104.806 136.473 104.613 136.473 104.356C136.473 104.099 136.698 103.842 136.955 103.713C137.373 103.584 137.437 102.524 137.437 97.0903C137.437 91.5928 137.373 90.6605 136.955 90.6605C136.698 90.6605 136.473 90.4354 136.473 90.1782C136.473 89.7603 135.412 89.696 128.918 89.696C122.424 89.696 121.363 89.7603 121.363 90.1782Z" fill="#3C6ADF"/>
<path d="M99.6943 110.014C99.5979 110.432 99.5014 113.229 99.5014 116.283C99.5014 120.398 99.405 121.845 99.1157 121.942C98.7942 122.07 98.7942 122.199 99.0835 122.392C99.2764 122.52 99.5657 123.067 99.6622 123.549C99.7908 124.031 99.9194 124.417 99.9515 124.449C100.144 124.61 113.486 124.706 114.547 124.578L115.898 124.385V117.569C115.898 113.808 115.801 110.432 115.705 110.014L115.512 109.307H107.699H99.8872L99.6943 110.014Z" fill="#3C6ADF"/>
<path d="M120.881 109.821C120.431 110.271 120.366 111.236 120.463 117.183C120.527 120.977 120.688 124.16 120.816 124.288C121.106 124.578 134.576 124.771 135.766 124.513C136.248 124.385 136.473 124.128 136.473 123.613C136.473 123.195 136.698 122.81 136.955 122.681C137.373 122.552 137.438 121.556 137.438 116.541C137.438 111.461 137.373 110.593 136.955 110.593C136.698 110.593 136.473 110.304 136.473 109.95C136.473 109.339 136.248 109.307 128.95 109.307C122.424 109.307 121.331 109.371 120.881 109.821Z" fill="#3C6ADF"/>
<path d="M58.2704 154.605C58.2704 154.766 56.2129 154.959 53.7052 155.023C50.426 155.087 49.1079 155.248 49.0114 155.505C48.9471 155.795 48.2399 155.923 47.0182 155.923C45.7644 155.923 44.9606 156.084 44.6392 156.406C44.382 156.663 43.6104 156.888 42.871 156.888C42.1315 156.888 41.4885 157.081 41.3278 157.338C41.1992 157.563 40.3633 157.852 39.4631 157.949C38.5951 158.045 37.8235 158.27 37.7592 158.463C37.6949 158.656 37.2127 158.817 36.6983 158.817C36.0875 158.817 35.766 158.977 35.766 159.299C35.766 159.588 35.4445 159.781 34.9301 159.781C34.48 159.781 33.9013 160.006 33.6441 160.263C33.3548 160.521 32.7118 160.746 32.1974 160.746C31.5866 160.746 31.2651 160.906 31.2651 161.228C31.2651 161.485 30.9758 161.71 30.6221 161.71C30.2685 161.71 29.9791 161.839 29.9791 162.032C29.9791 162.192 29.6255 162.417 29.1754 162.546C28.7253 162.642 28.3717 162.868 28.3717 162.996C28.3717 163.125 27.9859 163.35 27.5358 163.446C27.0857 163.575 26.3784 164.025 25.9926 164.443C25.6068 164.861 24.8996 165.311 24.4173 165.407C23.9351 165.536 23.5493 165.825 23.5493 166.082C23.5493 166.34 23.3243 166.533 23.0671 166.533C22.8099 166.533 22.5848 166.661 22.5848 166.854C22.5848 167.015 22.3598 167.176 22.1026 167.176C21.8454 167.176 21.6204 167.401 21.6204 167.658C21.6204 167.915 21.4275 168.14 21.1703 168.14C20.9131 168.14 20.2701 168.558 19.7557 169.104C19.2092 169.619 18.6305 170.069 18.4376 170.069C18.2447 170.069 18.0839 170.294 18.0839 170.551C18.0839 170.808 17.8589 171.033 17.6017 171.033C17.3445 171.033 17.1195 171.258 17.1195 171.516C17.1195 171.773 16.8944 171.998 16.6372 171.998C16.38 171.998 16.155 172.223 16.155 172.48C16.155 172.737 15.93 172.962 15.6728 172.962C15.4156 172.962 15.1905 173.187 15.1905 173.445C15.1905 173.702 14.9976 173.927 14.7404 173.927C14.4832 173.927 14.1939 174.28 14.0974 174.731C13.9689 175.181 13.7438 175.534 13.5831 175.534C13.3902 175.534 13.2616 175.759 13.2616 176.017C13.2616 176.306 13.0365 176.595 12.7793 176.692C12.5221 176.82 12.2971 177.077 12.2971 177.335C12.2971 177.592 12.0721 177.785 11.8149 177.785C11.5255 177.785 11.3326 178.074 11.3326 178.588C11.3326 179.103 11.1397 179.392 10.8504 179.392C10.5932 179.392 10.3681 179.585 10.3681 179.842C10.3681 180.099 10.1431 180.357 9.88591 180.485C9.62871 180.582 9.40367 180.871 9.40367 181.16C9.40367 181.418 9.27507 181.643 9.08218 181.643C8.92143 181.643 8.69639 181.996 8.56779 182.414C8.47134 182.864 8.182 183.282 7.92481 183.379C7.66761 183.475 7.47472 183.925 7.47472 184.375C7.47472 184.89 7.28182 185.179 6.99248 185.179C6.67099 185.179 6.51024 185.501 6.51024 186.144C6.51024 186.658 6.38165 187.108 6.18875 187.108C6.02801 187.108 5.80296 187.462 5.67437 187.912C5.57792 188.362 5.35287 188.715 5.19213 188.715C5.06353 188.715 4.83849 189.23 4.70989 189.841C4.61344 190.452 4.3884 190.966 4.2598 190.966C4.13121 190.966 3.93831 191.545 3.80971 192.252C3.71327 192.959 3.48822 193.538 3.32748 193.538C3.16673 193.538 2.97384 194.149 2.87739 194.856C2.78094 195.595 2.5559 196.303 2.39515 196.399C2.23441 196.496 2.00936 197.171 1.91291 197.878C1.78432 198.585 1.55927 199.196 1.36638 199.26C1.20563 199.325 1.04489 200.225 1.04489 201.254C1.04489 202.54 0.884141 203.311 0.5305 203.633C0.0804116 204.083 0.0161133 205.562 0.0161133 215.271C0.0161133 223.34 0.112561 226.459 0.369754 226.619C0.562649 226.748 0.819842 227.873 0.948439 229.095C1.04489 230.316 1.26993 231.41 1.46283 231.506C1.62357 231.635 1.84862 232.406 1.94506 233.274C2.00936 234.142 2.23441 234.946 2.39515 235.042C2.5559 235.139 2.74879 235.782 2.87739 236.489C2.97384 237.164 3.19888 237.839 3.35963 237.936C3.52037 238.032 3.74542 238.74 3.84186 239.479C3.93831 240.186 4.13121 240.797 4.29195 240.797C4.42055 240.797 4.61344 241.215 4.74204 241.762C4.87064 242.276 5.06353 242.726 5.22428 242.726C5.38502 242.726 5.57792 243.144 5.70652 243.691C5.83511 244.205 6.06016 244.655 6.2209 244.655C6.38165 244.655 6.51024 245.009 6.51024 245.459C6.51024 245.909 6.70314 246.359 6.96033 246.455C7.21753 246.552 7.50687 246.97 7.60332 247.42C7.73191 247.838 7.95696 248.191 8.1177 248.191C8.3106 248.191 8.43919 248.481 8.43919 248.802C8.43919 249.156 8.66424 249.638 8.92143 249.927C9.17863 250.185 9.40367 250.538 9.40367 250.731C9.40367 250.924 9.62871 251.085 9.88591 251.085C10.1431 251.085 10.3681 251.31 10.3681 251.567C10.3681 251.856 10.5932 252.146 10.8504 252.242C11.1076 252.371 11.3326 252.789 11.3326 253.207C11.3326 253.689 11.5255 253.978 11.8149 253.978C12.0721 253.978 12.2971 254.203 12.2971 254.46C12.2971 254.718 12.5221 254.943 12.7793 254.943C13.0687 254.943 13.2616 255.232 13.2616 255.65C13.2937 256.068 13.7117 256.743 14.226 257.193C14.7726 257.611 15.1905 258.158 15.1905 258.383C15.1905 258.608 15.3513 258.801 15.5442 258.801C15.9942 258.801 18.7269 261.533 18.7269 261.983C18.7269 262.176 18.952 262.337 19.2092 262.337C19.4664 262.337 19.6914 262.562 19.6914 262.819C19.6914 263.076 19.8843 263.302 20.1093 263.302C20.3344 263.302 20.8809 263.719 21.2989 264.266C21.7489 264.78 22.4241 265.198 22.842 265.23C23.26 265.23 23.5493 265.423 23.5493 265.713C23.5493 265.97 23.7743 266.195 24.0315 266.195C24.2887 266.195 24.5138 266.42 24.5138 266.677C24.5138 266.934 24.7388 267.159 24.996 267.159C25.2532 267.159 25.4783 267.384 25.4783 267.642C25.4783 267.963 25.7997 268.124 26.4427 268.124C27.0857 268.124 27.4072 268.285 27.4072 268.606C27.4072 268.863 27.6322 269.088 27.8894 269.088C28.1466 269.088 28.3717 269.217 28.3717 269.41C28.3717 269.571 28.7575 269.828 29.2397 269.924C29.7219 270.053 30.3328 270.342 30.5578 270.599C30.7829 270.824 31.2008 271.017 31.458 271.017C31.7152 271.017 31.9081 271.146 31.9081 271.307C31.9081 271.467 32.3582 271.692 32.8726 271.821C33.4191 271.95 33.837 272.143 33.837 272.303C33.837 272.464 34.2871 272.657 34.8015 272.786C35.348 272.914 35.766 273.107 35.766 273.236C35.766 273.396 36.3768 273.589 37.0841 273.686C37.8235 273.782 38.5308 274.007 38.6273 274.168C38.7237 274.329 39.3667 274.554 40.0418 274.682C40.6848 274.811 41.2313 275.036 41.2313 275.165C41.2313 275.325 41.9065 275.518 42.7424 275.615C43.5782 275.711 44.3177 275.936 44.382 276.129C44.4463 276.322 45.3143 276.483 46.3752 276.483C47.629 276.483 48.4328 276.643 48.7542 276.965C49.14 277.383 50.7796 277.447 59.4921 277.447C66.1791 277.447 69.8441 277.319 69.9084 277.126C69.9727 276.933 71.0336 276.708 72.2553 276.579C73.477 276.483 74.6986 276.193 74.9237 275.936C75.1487 275.711 75.9846 275.518 76.7883 275.518C77.5599 275.518 78.2029 275.39 78.2029 275.197C78.2029 275.036 78.7816 274.779 79.4889 274.682C80.1961 274.554 80.7748 274.361 80.7748 274.2C80.7748 274.071 81.2892 273.846 81.9 273.718C82.5109 273.621 83.0253 273.396 83.0253 273.268C83.0253 273.107 83.4753 272.914 83.9897 272.786C84.5363 272.657 84.9542 272.432 84.9542 272.271C84.9542 272.11 85.3079 271.982 85.7579 271.982C86.208 271.982 86.6581 271.757 86.7546 271.5C86.8832 271.242 87.3011 271.017 87.719 271.017C88.2013 271.017 88.4906 270.824 88.4906 270.535C88.4906 270.214 88.8121 270.053 89.4551 270.053C90.0981 270.053 90.4196 269.892 90.4196 269.571C90.4196 269.313 90.6446 269.088 90.9018 269.088C91.1911 269.088 91.4805 268.863 91.5769 268.606C91.7055 268.349 92.1235 268.124 92.5414 268.124C93.0237 268.124 93.313 267.931 93.313 267.642C93.313 267.384 93.538 267.159 93.7952 267.159C94.0524 267.159 94.2775 266.934 94.2775 266.677C94.2775 266.388 94.5668 266.195 95.0812 266.195C95.5956 266.195 95.8849 266.002 95.8849 265.713C95.8849 265.456 96.0778 265.23 96.335 265.23C96.5922 265.23 96.8494 265.005 96.978 264.748C97.0744 264.491 97.3638 264.266 97.6531 264.266C97.9103 264.266 98.1354 264.041 98.1354 263.784C98.1354 263.527 98.3604 263.302 98.6176 263.302C98.8748 263.302 99.0998 263.076 99.0998 262.819C99.0998 262.562 99.2606 262.337 99.4535 262.337C99.9036 262.337 102.636 259.604 102.636 259.154C102.636 258.961 102.861 258.801 103.118 258.801C103.376 258.801 103.601 258.576 103.601 258.318C103.601 258.061 103.826 257.836 104.083 257.836C104.34 257.836 104.565 257.611 104.565 257.354C104.565 257.097 104.79 256.872 105.047 256.872C105.305 256.872 105.53 256.647 105.53 256.389C105.53 256.132 105.755 255.907 106.012 255.907C106.269 255.907 106.494 255.618 106.494 255.264C106.494 254.911 106.623 254.621 106.816 254.621C106.976 254.621 107.201 254.268 107.33 253.818C107.426 253.367 107.716 253.014 107.973 253.014C108.23 253.014 108.423 252.853 108.423 252.66C108.423 252.467 108.648 252.114 108.905 251.856C109.163 251.567 109.388 251.085 109.388 250.731C109.388 250.41 109.613 250.12 109.87 250.12C110.127 250.12 110.352 249.895 110.352 249.638C110.352 249.381 110.481 249.156 110.641 249.156C110.802 249.156 111.027 248.706 111.156 248.191C111.284 247.645 111.477 247.227 111.638 247.227C111.799 247.227 111.992 246.777 112.12 246.262C112.249 245.716 112.474 245.298 112.635 245.298C112.795 245.298 112.924 244.944 112.924 244.494C112.924 244.044 113.117 243.594 113.374 243.498C113.599 243.401 113.888 242.758 114.017 242.051C114.114 241.376 114.371 240.797 114.531 240.797C114.724 240.797 114.853 240.347 114.853 239.833C114.853 239.222 115.014 238.868 115.303 238.868C115.592 238.868 115.785 238.289 115.882 237.036C115.978 236.039 116.203 235.139 116.396 235.075C116.653 235.01 116.782 234.11 116.782 232.728V230.509H101.382H85.983L85.7901 231.217C85.6936 231.635 85.5972 232.278 85.5972 232.663C85.5972 233.081 85.4686 233.403 85.3079 233.403C85.1471 233.403 84.9542 233.981 84.8256 234.689C84.7292 235.396 84.5041 235.975 84.3434 235.975C84.1826 235.975 83.9576 236.393 83.829 236.939C83.7004 237.454 83.4753 237.904 83.3146 237.904C83.1539 237.904 83.0253 238.129 83.0253 238.386C83.0253 238.643 82.8002 238.868 82.543 238.868C82.2858 238.868 82.0608 239.093 82.0608 239.35C82.0608 239.608 81.7714 240.09 81.4178 240.379C81.0642 240.701 80.7748 241.054 80.7748 241.215C80.7748 241.665 79.0388 243.273 78.2993 243.498C77.9135 243.626 77.5278 243.916 77.4313 244.173C77.3349 244.43 77.0455 244.655 76.7562 244.655C76.499 244.655 76.2739 244.784 76.2739 244.976C76.2739 245.137 75.9203 245.362 75.4702 245.491C75.0201 245.587 74.6665 245.812 74.6665 245.941C74.6665 246.102 74.2485 246.295 73.702 246.423C73.1876 246.552 72.7375 246.745 72.7375 246.905C72.7375 247.066 72.3196 247.259 71.7731 247.388C71.2587 247.516 70.8086 247.709 70.8086 247.838C70.8086 247.999 70.1977 248.191 69.4905 248.288C68.751 248.384 68.0437 248.609 67.9473 248.77C67.8509 248.931 66.3077 249.156 64.5395 249.284C62.7713 249.413 61.2924 249.67 61.2281 249.831C61.0674 250.217 58.6883 250.217 58.5276 249.799C58.4954 249.638 57.2095 249.413 55.6985 249.284C54.1875 249.156 52.8693 248.931 52.7729 248.77C52.6764 248.609 51.8406 248.416 50.9404 248.288C50.0081 248.191 49.2686 247.999 49.2686 247.838C49.2686 247.709 48.7542 247.484 48.1434 247.356C47.5326 247.259 47.0182 247.034 47.0182 246.905C47.0182 246.745 46.6003 246.552 46.0537 246.423C45.5393 246.295 45.0892 246.102 45.0892 245.941C45.0892 245.812 44.7356 245.587 44.2855 245.491C43.8354 245.362 43.4818 245.137 43.4818 244.976C43.4818 244.784 43.2889 244.655 43.0638 244.655C42.8388 244.655 42.2923 244.237 41.8422 243.723C41.3921 243.24 40.717 242.726 40.3312 242.597C39.9454 242.469 39.6239 242.212 39.6239 242.051C39.6239 241.89 39.3988 241.762 39.1416 241.762C38.8845 241.762 38.6594 241.537 38.6594 241.279C38.6594 241.022 38.4344 240.797 38.1772 240.797C37.8557 240.797 37.6949 240.476 37.6949 239.833C37.6949 239.19 37.5342 238.868 37.2127 238.868C36.9555 238.868 36.7305 238.643 36.7305 238.386C36.7305 238.129 36.5054 237.904 36.2482 237.904C35.991 237.904 35.766 237.743 35.766 237.55C35.766 237.357 35.5409 237.003 35.2837 236.746C35.0266 236.457 34.8015 235.975 34.8015 235.621C34.8015 235.3 34.5765 235.01 34.3193 235.01C34.0299 235.01 33.837 234.721 33.837 234.207C33.837 233.756 33.7084 233.403 33.5477 233.403C33.3869 233.403 33.1619 232.953 33.0333 232.438C32.9047 231.892 32.7118 231.474 32.5511 231.474C32.3903 231.474 32.1653 230.831 32.0367 230.027C31.9402 229.223 31.7152 228.58 31.5866 228.58C31.458 228.58 31.233 227.745 31.1044 226.716C30.9758 225.719 30.7186 224.787 30.4935 224.658C30.0113 224.337 29.9791 207.426 30.4935 207.105C30.6864 206.976 30.9436 206.205 31.0722 205.337C31.2008 204.501 31.4258 203.826 31.5544 203.826C31.7152 203.826 31.9081 203.247 32.0367 202.54C32.1331 201.832 32.3903 201.254 32.5511 201.254C32.744 201.254 32.8726 200.804 32.8726 200.289C32.8726 199.646 33.0333 199.325 33.3548 199.325C33.6763 199.325 33.837 199.003 33.837 198.36C33.837 197.749 33.9978 197.396 34.2871 197.396C34.5443 197.396 34.8337 197.042 34.9301 196.592C35.0587 196.142 35.2837 195.788 35.4445 195.788C35.6374 195.788 35.766 195.499 35.766 195.145C35.766 194.792 35.991 194.502 36.2482 194.502C36.5054 194.502 36.7305 194.277 36.7305 194.02C36.7305 193.763 36.9555 193.538 37.2127 193.538C37.502 193.538 37.6949 193.248 37.6949 192.734C37.6949 192.22 37.8878 191.93 38.1772 191.93C38.4344 191.93 38.6594 191.705 38.6594 191.448C38.6594 191.191 38.8845 190.966 39.1416 190.966C39.3988 190.966 39.6239 190.741 39.6239 190.484C39.6239 190.226 39.8489 190.001 40.1061 190.001C40.3633 190.001 40.5884 189.809 40.5884 189.551C40.5884 189.294 40.942 189.005 41.3921 188.908C41.8422 188.78 42.1958 188.555 42.1958 188.394C42.1958 188.201 42.4209 188.072 42.6781 188.072C42.9674 188.072 43.2567 187.847 43.3532 187.59C43.4818 187.333 43.8997 187.108 44.3177 187.108C44.7999 187.108 45.0892 186.915 45.0892 186.626C45.0892 186.369 45.3786 186.144 45.7322 186.144C46.0859 186.144 46.3752 185.918 46.3752 185.661C46.3752 185.308 46.7289 185.179 47.6612 185.179C48.5935 185.179 48.9471 185.05 48.9471 184.697C48.9471 184.375 49.2686 184.215 49.9438 184.215C50.4903 184.215 51.1333 183.99 51.3905 183.732C51.712 183.411 52.5157 183.25 53.7695 183.25C54.9912 183.25 55.6985 183.121 55.7949 182.832C55.8914 182.543 56.9844 182.446 59.8779 182.446C62.7713 182.446 63.8644 182.543 63.993 182.832C64.0573 183.121 64.7645 183.25 65.9862 183.25C67.24 183.25 68.0437 183.411 68.3652 183.732C68.6224 183.99 69.2654 184.215 69.812 184.215C70.3263 184.215 70.9693 184.44 71.2587 184.697C71.5159 184.954 72.0945 185.179 72.5446 185.179C73.059 185.179 73.3805 185.372 73.3805 185.661C73.3805 185.983 73.702 186.144 74.345 186.144C74.988 186.144 75.3095 186.304 75.3095 186.626C75.3095 186.883 75.5345 187.108 75.7917 187.108C76.0489 187.108 76.2739 187.333 76.2739 187.59C76.2739 187.847 76.499 188.072 76.7562 188.072C77.0134 188.072 77.2384 188.201 77.2384 188.362C77.2384 188.523 77.6885 188.748 78.2029 188.876C78.7494 189.005 79.1674 189.294 79.1674 189.551C79.1674 189.809 79.3924 190.001 79.6496 190.001C79.9068 190.001 80.1318 190.226 80.1318 190.484C80.1318 190.741 80.3569 190.966 80.6141 190.966C80.8713 190.966 81.0963 191.191 81.0963 191.448C81.0963 191.705 81.2249 191.93 81.4178 191.93C81.5785 191.93 81.8036 192.284 81.9322 192.734C82.0286 193.184 82.318 193.538 82.5752 193.538C82.8324 193.538 83.0253 193.763 83.0253 194.02C83.0253 194.277 83.1539 194.502 83.3146 194.502C83.4753 194.502 83.7004 194.92 83.829 195.467C83.9576 195.981 84.1505 196.431 84.3112 196.431C84.472 196.431 84.6649 196.849 84.7935 197.396C84.9221 197.91 85.1471 198.36 85.3079 198.36C85.4686 198.36 85.5972 198.585 85.5972 198.842C85.5972 199.26 87.494 199.325 100.707 199.325H115.817V198.007C115.817 197.267 115.592 196.496 115.335 196.238C115.046 195.949 114.853 195.145 114.853 194.342C114.853 193.57 114.692 192.895 114.531 192.831C114.339 192.766 114.114 192.155 113.985 191.448C113.888 190.741 113.663 190.066 113.503 189.969C113.342 189.873 113.117 189.166 113.02 188.426C112.924 187.719 112.731 187.108 112.57 187.108C112.442 187.108 112.249 186.658 112.12 186.144C111.992 185.597 111.799 185.179 111.638 185.179C111.477 185.179 111.284 184.729 111.156 184.215C111.027 183.668 110.834 183.25 110.674 183.25C110.545 183.25 110.32 182.896 110.223 182.446C110.095 181.996 109.87 181.643 109.709 181.643C109.516 181.643 109.388 181.353 109.388 181C109.388 180.646 109.163 180.357 108.905 180.357C108.616 180.357 108.423 180.067 108.423 179.553C108.423 179.039 108.23 178.749 107.941 178.749C107.684 178.749 107.459 178.46 107.459 178.106C107.459 177.753 107.234 177.463 106.976 177.463C106.687 177.463 106.494 177.174 106.494 176.66C106.494 176.145 106.301 175.856 106.012 175.856C105.755 175.856 105.53 175.631 105.53 175.374C105.53 175.116 105.305 174.891 105.047 174.891C104.79 174.891 104.565 174.666 104.565 174.409C104.565 174.152 104.34 173.927 104.083 173.927C103.826 173.927 103.601 173.702 103.601 173.445C103.601 173.187 103.472 172.962 103.279 172.962C103.118 172.962 102.958 172.737 102.958 172.48C102.958 172.223 102.765 171.998 102.508 171.998C102.25 171.998 101.961 171.644 101.865 171.194C101.736 170.712 101.35 170.326 100.868 170.198C100.418 170.101 100.064 169.812 100.064 169.555C100.064 169.297 99.8714 169.104 99.6785 169.104C99.4535 169.072 98.9069 168.654 98.4569 168.14C98.0389 167.593 97.4924 167.176 97.2673 167.176C97.0423 167.176 96.8494 167.047 96.8494 166.886C96.8494 166.725 96.5279 166.468 96.1421 166.372C95.7885 166.243 95.1455 165.825 94.7919 165.439C94.4061 165.022 93.8595 164.636 93.5702 164.507C93.2487 164.411 92.9915 164.153 92.9915 163.961C92.9915 163.8 92.7986 163.639 92.5414 163.639C92.2842 163.639 91.8663 163.446 91.6412 163.189C91.384 162.964 90.8697 162.642 90.4839 162.546C90.0981 162.417 89.7766 162.16 89.7766 161.999C89.7766 161.839 89.4872 161.71 89.1658 161.71C88.8121 161.71 88.3299 161.517 88.1048 161.292C87.8798 161.035 87.2689 160.746 86.7867 160.617C86.3045 160.521 85.9187 160.263 85.9187 160.103C85.9187 159.91 85.5007 159.781 84.9542 159.781C84.3112 159.781 83.9897 159.62 83.9897 159.299C83.9897 158.977 83.6361 158.817 82.8645 158.817C82.0929 158.817 81.7393 158.656 81.7393 158.334C81.7393 157.981 81.3857 157.852 80.4533 157.852C79.521 157.852 79.1674 157.724 79.1674 157.37C79.1674 157.016 78.7494 156.888 77.4313 156.888C76.1775 156.888 75.6631 156.759 75.5024 156.406C75.3738 156.052 74.8272 155.923 73.4127 155.923C72.191 155.923 71.4516 155.795 71.3873 155.538C71.2908 155.248 69.9084 155.087 66.6935 155.023C64.1858 154.927 62.1283 154.766 62.1283 154.605C62.1283 154.444 61.2603 154.316 60.1994 154.316C59.1384 154.316 58.2704 154.444 58.2704 154.605Z" fill="#FFFDFD"/>
<path d="M107.33 155.216C107.041 155.698 107.523 156.888 107.973 156.888C108.23 156.888 108.423 157.081 108.423 157.338C108.423 157.595 108.648 157.852 108.905 157.981C109.163 158.077 109.388 158.527 109.388 158.977C109.388 159.492 109.581 159.781 109.87 159.781C110.127 159.781 110.352 159.942 110.352 160.135C110.352 160.36 110.706 160.842 111.124 161.228C111.542 161.614 111.992 162.289 112.12 162.707C112.249 163.125 112.699 163.768 113.085 164.153C113.503 164.507 113.921 165.15 114.049 165.504C114.146 165.89 114.403 166.211 114.564 166.211C114.724 166.211 114.853 166.436 114.853 166.693C114.853 166.983 115.078 167.272 115.335 167.368C115.592 167.497 115.817 167.915 115.817 168.333C115.817 168.815 116.01 169.104 116.3 169.104C116.557 169.104 116.782 169.329 116.782 169.587C116.782 169.844 117.007 170.069 117.264 170.069C117.586 170.069 117.746 170.39 117.746 171.033C117.746 171.676 117.907 171.998 118.229 171.998C118.486 171.998 118.711 172.223 118.711 172.48C118.711 172.737 118.936 172.962 119.193 172.962C119.45 172.962 119.675 173.123 119.675 173.316C119.675 173.509 119.9 173.863 120.158 174.12C120.415 174.409 120.64 174.891 120.64 175.245C120.64 175.566 120.865 175.856 121.122 175.856C121.379 175.856 121.604 176.081 121.604 176.338C121.604 176.595 121.733 176.82 121.926 176.82C122.087 176.82 122.312 177.174 122.44 177.592C122.537 178.042 122.826 178.46 123.083 178.556C123.34 178.653 123.533 178.942 123.533 179.231C123.533 179.489 123.662 179.714 123.823 179.714C123.983 179.714 124.241 180.035 124.337 180.421C124.466 180.775 124.916 181.418 125.301 181.803C125.719 182.157 126.169 182.864 126.266 183.347C126.395 183.829 126.62 184.215 126.78 184.215C126.941 184.215 127.07 184.44 127.07 184.697C127.07 184.954 127.263 185.179 127.52 185.179C127.777 185.179 128.066 185.597 128.195 186.144C128.323 186.658 128.549 187.108 128.709 187.108C128.87 187.108 128.999 187.333 128.999 187.59C128.999 187.847 129.224 188.072 129.481 188.072C129.77 188.072 129.963 188.362 129.963 188.876C129.963 189.326 130.188 189.776 130.445 189.873C130.703 190.001 130.928 190.259 130.928 190.516C130.928 190.773 131.153 190.966 131.41 190.966C131.699 190.966 131.892 191.255 131.892 191.737C131.892 192.155 132.117 192.573 132.374 192.702C132.631 192.798 132.857 193.248 132.857 193.699C132.857 194.213 133.049 194.502 133.339 194.502C133.596 194.502 133.821 194.695 133.821 194.952C133.821 195.21 134.046 195.467 134.303 195.595C134.56 195.692 134.785 196.142 134.785 196.592C134.785 197.106 134.978 197.396 135.268 197.396C135.525 197.396 135.75 197.621 135.75 197.878C135.75 198.135 135.879 198.36 136.039 198.36C136.2 198.36 136.425 198.778 136.554 199.325C136.682 199.839 136.972 200.289 137.229 200.289C137.486 200.289 137.679 200.514 137.679 200.771C137.679 201.029 137.807 201.254 137.968 201.254C138.129 201.254 138.354 201.639 138.483 202.122C138.579 202.604 139.029 203.311 139.447 203.697C139.865 204.083 140.315 204.79 140.444 205.24C140.54 205.69 140.765 206.076 140.894 206.076C141.022 206.076 141.247 206.43 141.344 206.88C141.472 207.33 141.698 207.683 141.858 207.683C142.051 207.683 142.18 207.908 142.18 208.166C142.18 208.455 142.405 208.744 142.662 208.841C142.919 208.969 143.144 209.387 143.144 209.805C143.144 210.288 143.337 210.577 143.626 210.577C143.884 210.577 144.109 210.802 144.109 211.059C144.109 211.316 144.334 211.541 144.591 211.541C144.912 211.541 145.073 211.863 145.073 212.506C145.073 213.149 145.234 213.47 145.555 213.47C145.845 213.47 146.038 213.76 146.038 214.274C146.038 214.788 146.231 215.078 146.52 215.078C146.777 215.078 147.002 215.367 147.002 215.721C147.002 216.074 147.227 216.364 147.484 216.364C147.774 216.364 147.967 216.653 147.967 217.135C147.967 217.553 148.192 217.971 148.449 218.1C148.706 218.196 148.931 218.486 148.931 218.775C148.931 219.032 149.06 219.257 149.253 219.257C149.413 219.257 149.671 219.643 149.767 220.125C149.896 220.607 150.185 221.218 150.442 221.443C150.667 221.668 150.86 222.086 150.86 222.343C150.86 222.601 150.989 222.794 151.149 222.794C151.31 222.794 151.535 223.179 151.664 223.662C151.76 224.144 152.05 224.658 152.242 224.787C152.532 224.948 152.66 231.538 152.725 250.763L152.789 276.483H167.738H182.688V250.603C182.688 227.809 182.752 224.723 183.17 224.723C183.459 224.723 183.652 224.433 183.652 223.919C183.652 223.469 183.877 223.019 184.134 222.922C184.392 222.794 184.617 222.536 184.617 222.279C184.617 222.022 184.842 221.829 185.099 221.829C185.42 221.829 185.581 221.508 185.581 220.865C185.581 220.222 185.742 219.9 186.063 219.9C186.353 219.9 186.546 219.611 186.546 219.096C186.546 218.582 186.739 218.293 187.028 218.293C187.285 218.293 187.51 218.003 187.51 217.65C187.51 217.296 187.735 217.007 187.992 217.007C188.282 217.007 188.475 216.717 188.475 216.203C188.475 215.689 188.667 215.399 188.957 215.399C189.214 215.399 189.439 215.174 189.439 214.917C189.439 214.66 189.568 214.435 189.728 214.435C189.889 214.435 190.114 214.049 190.243 213.567C190.339 213.085 190.789 212.377 191.207 211.991C191.625 211.606 192.075 210.898 192.204 210.448C192.3 209.998 192.525 209.612 192.654 209.612C192.783 209.612 193.008 209.259 193.104 208.809C193.233 208.359 193.458 208.005 193.618 208.005C193.811 208.005 193.94 207.78 193.94 207.523C193.94 207.233 194.133 206.944 194.39 206.848C194.647 206.751 194.937 206.333 195.033 205.883C195.162 205.465 195.387 205.112 195.547 205.112C195.74 205.112 195.869 204.886 195.869 204.629C195.869 204.372 196.094 204.147 196.351 204.147C196.673 204.147 196.833 203.826 196.833 203.183C196.833 202.54 196.994 202.218 197.316 202.218C197.573 202.218 197.798 201.993 197.798 201.736C197.798 201.479 198.023 201.254 198.28 201.254C198.602 201.254 198.762 200.932 198.762 200.289C198.762 199.646 198.923 199.325 199.245 199.325C199.502 199.325 199.727 199.1 199.727 198.842C199.727 198.585 199.952 198.36 200.209 198.36C200.531 198.36 200.691 198.039 200.691 197.396C200.691 196.753 200.852 196.431 201.173 196.431C201.431 196.431 201.656 196.27 201.656 196.078C201.656 195.885 201.881 195.531 202.138 195.274C202.395 194.985 202.62 194.502 202.62 194.149C202.62 193.827 202.845 193.538 203.102 193.538C203.36 193.538 203.585 193.313 203.585 193.056C203.585 192.798 203.713 192.573 203.874 192.573C204.035 192.573 204.26 192.22 204.356 191.77C204.485 191.32 204.678 190.966 204.839 190.966C204.999 190.966 205.224 190.516 205.353 190.001C205.481 189.455 205.707 189.037 205.867 189.037C206.028 189.037 206.157 188.812 206.157 188.555C206.157 188.298 206.35 188.072 206.607 188.072C206.864 188.072 207.153 187.622 207.282 187.108C207.41 186.561 207.635 186.144 207.796 186.144C207.957 186.144 208.086 185.918 208.086 185.661C208.086 185.404 208.311 185.179 208.568 185.179C208.857 185.179 209.05 184.89 209.05 184.375C209.05 183.925 209.275 183.475 209.532 183.379C209.789 183.25 210.015 182.993 210.015 182.736C210.015 182.479 210.24 182.286 210.497 182.286C210.786 182.286 210.979 181.996 210.979 181.482C210.979 181.032 211.204 180.582 211.461 180.485C211.718 180.357 211.943 180.099 211.943 179.842C211.943 179.585 212.169 179.392 212.426 179.392C212.715 179.392 212.908 179.103 212.908 178.621C212.908 178.203 213.133 177.785 213.39 177.656C213.647 177.56 213.872 177.11 213.872 176.66C213.872 176.145 214.065 175.856 214.355 175.856C214.612 175.856 214.837 175.663 214.837 175.406C214.837 175.148 215.062 174.891 215.319 174.763C215.576 174.666 215.801 174.216 215.801 173.766C215.801 173.252 215.994 172.962 216.284 172.962C216.541 172.962 216.766 172.737 216.766 172.48C216.766 172.223 216.894 171.998 217.055 171.998C217.216 171.998 217.441 171.548 217.57 171.033C217.698 170.487 217.988 170.069 218.245 170.069C218.502 170.069 218.695 169.844 218.695 169.587C218.695 169.329 218.823 169.104 218.984 169.104C219.145 169.104 219.37 168.751 219.466 168.301C219.595 167.851 219.82 167.497 219.981 167.497C220.174 167.497 220.302 167.272 220.302 167.015C220.302 166.725 220.527 166.436 220.784 166.34C221.042 166.211 221.267 165.793 221.267 165.375C221.267 164.893 221.46 164.604 221.749 164.604C222.006 164.604 222.231 164.314 222.231 163.993C222.231 163.639 222.456 163.157 222.713 162.868C222.971 162.61 223.196 162.257 223.196 162.064C223.196 161.871 223.421 161.71 223.678 161.71C223.999 161.71 224.16 161.389 224.16 160.746C224.16 160.103 224.321 159.781 224.642 159.781C224.9 159.781 225.125 159.556 225.125 159.299C225.125 159.042 225.35 158.817 225.607 158.817C225.928 158.817 226.089 158.495 226.089 157.852C226.089 157.209 226.25 156.888 226.571 156.888C226.829 156.888 227.054 156.695 227.054 156.438C227.054 156.18 227.246 155.891 227.472 155.827C227.761 155.698 227.729 155.57 227.375 155.312C227.054 155.087 221.267 154.959 209.629 154.959H192.397L192.172 155.923C192.043 156.438 191.818 156.888 191.657 156.888C191.497 156.888 191.368 157.113 191.368 157.37C191.368 157.627 191.143 157.852 190.886 157.852C190.564 157.852 190.404 158.174 190.404 158.817C190.404 159.428 190.243 159.781 189.953 159.781C189.696 159.781 189.407 160.199 189.278 160.746C189.15 161.26 188.957 161.71 188.796 161.71C188.667 161.71 188.442 162.064 188.346 162.514C188.217 162.964 187.992 163.318 187.832 163.318C187.639 163.318 187.51 163.607 187.51 163.961C187.51 164.314 187.285 164.604 187.028 164.604C186.706 164.604 186.546 164.925 186.546 165.568C186.546 166.211 186.385 166.533 186.063 166.533C185.774 166.533 185.581 166.822 185.581 167.336C185.581 167.851 185.388 168.14 185.099 168.14C184.777 168.14 184.617 168.461 184.617 169.104C184.617 169.747 184.456 170.069 184.134 170.069C183.813 170.069 183.652 170.39 183.652 171.033C183.652 171.676 183.491 171.998 183.17 171.998C182.881 171.998 182.688 172.287 182.688 172.769C182.688 173.187 182.463 173.605 182.205 173.734C181.948 173.83 181.723 174.12 181.723 174.409C181.723 174.666 181.595 174.891 181.434 174.891C181.273 174.891 181.048 175.277 180.952 175.727C180.823 176.209 180.502 176.788 180.277 177.045C180.019 177.302 179.794 177.785 179.794 178.138C179.794 178.46 179.666 178.749 179.473 178.749C179.312 178.749 179.087 179.103 178.958 179.553C178.862 180.003 178.637 180.357 178.508 180.357C178.348 180.357 178.155 180.775 178.026 181.321C177.897 181.836 177.672 182.286 177.512 182.286C177.351 182.286 177.222 182.511 177.222 182.768C177.222 183.025 176.997 183.25 176.74 183.25C176.419 183.25 176.258 183.572 176.258 184.215C176.258 184.858 176.097 185.179 175.776 185.179C175.454 185.179 175.293 185.501 175.293 186.144C175.293 186.754 175.133 187.108 174.843 187.108C174.586 187.108 174.297 187.462 174.2 187.912C174.072 188.362 173.847 188.715 173.686 188.715C173.493 188.715 173.364 189.005 173.364 189.326C173.364 189.68 173.139 190.162 172.882 190.451C172.625 190.709 172.4 191.159 172.4 191.416C172.4 191.705 172.175 191.93 171.918 191.93C171.596 191.93 171.436 192.252 171.436 192.895C171.436 193.538 171.275 193.859 170.953 193.859C170.664 193.859 170.471 194.149 170.471 194.663C170.471 195.177 170.278 195.467 169.989 195.467C169.667 195.467 169.507 195.788 169.507 196.431C169.507 197.074 169.346 197.396 169.024 197.396C168.735 197.396 168.542 197.685 168.542 198.071C168.542 198.553 168.413 198.682 168.028 198.553C167.738 198.457 167.417 198.36 167.256 198.36C167.095 198.36 166.902 197.91 166.774 197.396C166.645 196.849 166.452 196.431 166.292 196.431C166.163 196.431 165.938 196.078 165.842 195.628C165.713 195.177 165.52 194.824 165.359 194.824C165.199 194.824 164.974 194.374 164.845 193.859C164.716 193.313 164.491 192.895 164.331 192.895C164.17 192.895 164.041 192.67 164.041 192.413C164.041 192.123 163.848 191.834 163.591 191.737C163.334 191.641 163.045 191.223 162.948 190.773C162.82 190.355 162.594 190.001 162.434 190.001C162.241 190.001 162.112 189.551 162.112 189.037C162.112 188.394 161.952 188.072 161.63 188.072C161.373 188.072 161.148 187.783 161.148 187.462C161.148 187.108 160.955 186.626 160.698 186.401C160.473 186.144 160.151 185.629 160.055 185.243C159.926 184.858 159.669 184.536 159.508 184.536C159.347 184.536 159.219 184.247 159.219 183.893C159.219 183.539 158.994 183.25 158.737 183.25C158.415 183.25 158.254 182.929 158.254 182.286C158.254 181.643 158.094 181.321 157.772 181.321C157.483 181.321 157.29 181.032 157.29 180.55C157.29 180.132 157.065 179.714 156.808 179.585C156.55 179.489 156.325 179.039 156.325 178.588C156.325 178.074 156.133 177.785 155.843 177.785C155.586 177.785 155.361 177.495 155.361 177.142C155.361 176.788 155.232 176.499 155.039 176.499C154.879 176.499 154.654 176.145 154.525 175.695C154.429 175.245 154.204 174.891 154.075 174.891C153.914 174.891 153.721 174.441 153.593 173.927C153.464 173.38 153.271 172.962 153.11 172.962C152.95 172.962 152.757 172.512 152.628 171.998C152.5 171.451 152.307 171.033 152.146 171.033C151.985 171.033 151.792 170.583 151.664 170.069C151.535 169.522 151.342 169.104 151.182 169.104C151.053 169.104 150.828 168.751 150.731 168.301C150.603 167.851 150.378 167.497 150.217 167.497C150.024 167.497 149.896 167.272 149.896 167.015C149.896 166.725 149.671 166.436 149.413 166.34C149.156 166.211 148.931 165.793 148.931 165.375C148.931 164.893 148.738 164.604 148.449 164.604C148.127 164.604 147.967 164.282 147.967 163.639C147.967 162.996 147.806 162.675 147.484 162.675C147.227 162.675 147.002 162.385 147.002 162.064C147.002 161.71 146.777 161.228 146.52 160.939C146.263 160.681 146.038 160.328 146.038 160.135C146.038 159.942 145.813 159.781 145.555 159.781C145.234 159.781 145.073 159.46 145.073 158.817C145.073 158.174 144.912 157.852 144.591 157.852C144.269 157.852 144.109 157.531 144.109 156.888C144.109 156.245 143.948 155.923 143.626 155.923C143.369 155.923 143.144 155.698 143.144 155.441C143.144 155.023 140.958 154.959 125.334 154.959C115.528 154.959 107.427 155.087 107.33 155.216Z" fill="#FFFDFD"/>
<path d="M234.287 155.698C233.741 156.309 233.612 158.817 234.126 158.817C234.319 158.817 234.448 159.235 234.448 159.781C234.448 160.296 234.319 160.746 234.126 160.746C233.933 160.746 233.805 163.318 233.805 167.818C233.805 172.319 233.933 174.891 234.126 174.891C234.351 174.891 234.448 190.323 234.448 220.543C234.448 250.763 234.351 266.195 234.126 266.195C233.933 266.195 233.805 267.963 233.805 270.857C233.805 273.75 233.933 275.518 234.126 275.518C234.319 275.518 234.448 275.743 234.448 276C234.448 276.418 236.248 276.483 248.593 276.483H262.739V253.56C262.739 230.992 262.739 230.638 263.382 230.091C263.993 229.577 265.6 229.545 284.601 229.545C298.103 229.545 305.176 229.641 305.176 229.866C305.176 230.027 305.401 230.188 305.658 230.188C305.915 230.188 306.14 230.027 306.14 229.866C306.14 229.673 306.365 229.545 306.623 229.545C306.88 229.545 307.105 229.673 307.105 229.866C307.105 230.027 307.459 230.188 307.909 230.188C308.359 230.188 308.712 230.027 308.712 229.866C308.712 229.673 309.162 229.545 309.677 229.545H310.641V216.814C310.641 206.237 310.577 204.018 310.191 203.633C309.805 203.247 306.173 203.183 286.24 203.183H262.739L262.803 192.798L262.9 182.446L288.716 182.35L314.499 182.286V168.654V155.023L274.634 155.087C236.988 155.12 234.737 155.152 234.287 155.698Z" fill="#3C6ADF"/>
<path d="M382.495 155.312C382.27 155.634 382.72 156.888 383.009 156.888C383.17 156.888 383.298 157.113 383.298 157.37C383.298 157.627 383.524 157.852 383.781 157.852C384.07 157.852 384.263 158.142 384.263 158.656C384.263 159.106 384.488 159.556 384.745 159.653C385.002 159.781 385.227 160.038 385.227 160.296C385.227 160.553 385.452 160.746 385.71 160.746C385.999 160.746 386.192 161.035 386.192 161.549C386.192 162.064 386.385 162.353 386.674 162.353C386.931 162.353 387.156 162.642 387.156 162.996C387.156 163.35 387.381 163.639 387.639 163.639C387.928 163.639 388.121 163.928 388.121 164.411C388.121 164.829 388.346 165.247 388.603 165.375C388.86 165.472 389.085 165.922 389.085 166.372C389.085 166.886 389.278 167.176 389.568 167.176C389.825 167.176 390.05 167.401 390.05 167.658C390.05 167.915 390.275 168.14 390.532 168.14C390.789 168.14 391.014 168.429 391.014 168.783C391.014 169.137 391.143 169.426 391.336 169.426C391.496 169.426 391.722 169.78 391.85 170.23C391.947 170.68 392.236 171.033 392.493 171.033C392.75 171.033 392.943 171.258 392.943 171.516C392.943 171.773 393.072 171.998 393.233 171.998C393.393 171.998 393.618 172.416 393.747 172.962C393.876 173.477 394.165 173.927 394.422 173.927C394.679 173.927 394.872 174.152 394.872 174.409C394.872 174.666 395.001 174.891 395.161 174.891C395.322 174.891 395.547 175.245 395.644 175.695C395.772 176.145 395.997 176.499 396.158 176.499C396.351 176.499 396.48 176.724 396.48 176.981C396.48 177.27 396.673 177.56 396.93 177.656C397.187 177.753 397.476 178.171 397.573 178.621C397.701 179.039 397.926 179.392 398.087 179.392C398.28 179.392 398.409 179.617 398.409 179.874C398.409 180.132 398.634 180.357 398.891 180.357C399.148 180.357 399.373 180.646 399.373 181C399.373 181.353 399.598 181.643 399.855 181.643C400.145 181.643 400.338 181.932 400.338 182.446C400.338 182.961 400.53 183.25 400.82 183.25C401.077 183.25 401.302 183.443 401.302 183.7C401.302 183.957 401.527 184.215 401.784 184.343C402.041 184.44 402.266 184.89 402.266 185.34C402.266 185.854 402.459 186.144 402.749 186.144C403.006 186.144 403.231 186.304 403.231 186.497C403.231 186.69 403.456 187.044 403.713 187.301C403.97 187.59 404.195 188.072 404.195 188.426C404.195 188.748 404.42 189.037 404.678 189.037C404.935 189.037 405.16 189.262 405.16 189.519C405.16 189.776 405.288 190.001 405.481 190.001C405.642 190.001 405.867 190.355 405.996 190.773C406.092 191.223 406.382 191.641 406.639 191.737C406.896 191.834 407.089 192.123 407.089 192.413C407.089 192.67 407.217 192.895 407.41 192.895C407.571 192.895 407.796 193.248 407.925 193.699C408.021 194.149 408.246 194.502 408.407 194.502C408.568 194.502 408.696 194.727 408.696 194.985C408.696 195.242 408.889 195.467 409.146 195.467C409.404 195.467 409.693 195.885 409.822 196.431C409.95 196.946 410.175 197.396 410.336 197.396C410.497 197.396 410.625 197.621 410.625 197.878C410.625 198.135 410.85 198.36 411.107 198.36C411.397 198.36 411.59 198.65 411.59 199.164C411.59 199.614 411.815 200.064 412.072 200.161C412.329 200.289 412.554 200.546 412.554 200.804C412.554 201.061 412.779 201.254 413.036 201.254C413.326 201.254 413.519 201.543 413.519 202.057C413.519 202.572 413.712 202.861 414.001 202.861C414.258 202.861 414.483 203.15 414.483 203.504C414.483 203.858 414.708 204.147 414.965 204.147C415.255 204.147 415.448 204.436 415.448 204.951C415.448 205.465 415.641 205.755 415.93 205.755C416.187 205.755 416.412 206.044 416.412 206.397C416.412 206.751 416.637 207.04 416.894 207.04C417.184 207.04 417.377 207.33 417.377 207.844C417.377 208.359 417.569 208.648 417.859 208.648C418.116 208.648 418.341 208.873 418.341 209.13C418.341 209.387 418.47 209.612 418.63 209.612C418.791 209.612 419.016 210.03 419.145 210.577C419.273 211.091 419.563 211.541 419.82 211.541C420.077 211.541 420.27 211.766 420.27 212.024C420.27 212.281 420.399 212.506 420.559 212.506C420.72 212.506 420.945 212.859 421.042 213.31C421.17 213.76 421.395 214.113 421.556 214.113C422.07 214.113 421.942 215.946 421.395 216.171C421.138 216.267 420.913 216.557 420.913 216.846C420.913 217.103 420.784 217.328 420.591 217.328C420.431 217.328 420.27 217.553 420.27 217.81C420.27 218.068 420.077 218.293 419.82 218.293C419.563 218.293 419.273 218.646 419.177 219.096C419.048 219.546 418.823 219.9 418.663 219.9C418.47 219.9 418.341 220.125 418.341 220.382C418.341 220.672 418.116 220.961 417.859 221.058C417.602 221.186 417.377 221.604 417.377 222.022C417.377 222.504 417.184 222.794 416.894 222.794C416.637 222.794 416.412 223.019 416.412 223.276C416.412 223.565 416.187 223.854 415.93 223.951C415.673 224.08 415.448 224.497 415.448 224.915C415.448 225.398 415.255 225.687 414.965 225.687C414.708 225.687 414.483 225.912 414.483 226.169C414.483 226.426 414.258 226.651 414.001 226.651C413.679 226.651 413.519 226.973 413.519 227.616C413.519 228.259 413.358 228.58 413.036 228.58C412.779 228.58 412.554 228.741 412.554 228.934C412.554 229.127 412.329 229.481 412.072 229.738C411.815 230.027 411.59 230.509 411.59 230.863C411.59 231.184 411.365 231.474 411.107 231.474C410.85 231.474 410.625 231.699 410.625 231.956C410.625 232.213 410.497 232.438 410.304 232.438C410.143 232.438 409.918 232.792 409.789 233.242C409.693 233.692 409.468 234.046 409.307 234.046C409.146 234.046 409.018 234.271 409.018 234.528C409.018 234.817 408.825 235.107 408.568 235.203C408.311 235.3 408.021 235.718 407.925 236.168C407.796 236.586 407.571 236.939 407.41 236.939C407.217 236.939 407.089 237.164 407.089 237.421C407.089 237.711 406.864 238 406.607 238.097C406.349 238.225 406.124 238.643 406.124 239.061C406.124 239.511 405.931 239.833 405.674 239.833C405.417 239.833 405.128 240.251 404.999 240.797C404.871 241.311 404.646 241.762 404.485 241.762C404.324 241.762 404.195 241.987 404.195 242.244C404.195 242.501 403.97 242.726 403.713 242.726C403.456 242.726 403.231 242.951 403.231 243.208C403.231 243.465 403.006 243.691 402.749 243.691C402.459 243.691 402.266 243.98 402.266 244.494C402.266 244.944 402.041 245.394 401.784 245.491C401.527 245.619 401.302 245.877 401.302 246.134C401.302 246.391 401.077 246.584 400.82 246.584C400.53 246.584 400.338 246.873 400.338 247.388C400.338 247.902 400.145 248.191 399.855 248.191C399.534 248.191 399.373 248.513 399.373 249.156C399.373 249.799 399.212 250.12 398.891 250.12C398.634 250.12 398.409 250.345 398.409 250.603C398.409 250.86 398.184 251.085 397.926 251.085C397.669 251.085 397.444 251.374 397.444 251.728C397.444 252.081 397.315 252.371 397.123 252.371C396.962 252.371 396.737 252.724 396.608 253.175C396.512 253.625 396.287 253.978 396.126 253.978C395.965 253.978 395.837 254.203 395.837 254.46C395.837 254.718 395.644 254.943 395.387 254.943C395.129 254.943 394.84 255.361 394.711 255.907C394.583 256.422 394.358 256.872 394.197 256.872C394.036 256.872 393.908 257.097 393.908 257.354C393.908 257.611 393.715 257.836 393.458 257.836C393.2 257.836 392.911 258.254 392.782 258.801C392.654 259.315 392.429 259.765 392.268 259.765C392.107 259.765 391.979 259.99 391.979 260.247C391.979 260.505 391.754 260.73 391.496 260.73C391.207 260.73 391.014 261.019 391.014 261.533C391.014 262.048 390.821 262.337 390.532 262.337C390.275 262.337 390.05 262.562 390.05 262.819C390.05 263.109 389.825 263.398 389.568 263.494C389.31 263.623 389.085 264.041 389.085 264.459C389.085 264.941 388.892 265.23 388.603 265.23C388.346 265.23 388.121 265.456 388.121 265.713C388.121 265.97 387.896 266.195 387.639 266.195C387.317 266.195 387.156 266.516 387.156 267.159C387.156 267.802 386.996 268.124 386.674 268.124C386.417 268.124 386.192 268.285 386.192 268.478C386.192 268.67 385.967 269.024 385.71 269.281C385.452 269.571 385.227 270.053 385.227 270.406C385.227 270.728 385.002 271.017 384.745 271.017C384.456 271.017 384.263 271.307 384.263 271.789C384.263 272.207 384.038 272.625 383.781 272.753C383.524 272.85 383.298 273.139 383.298 273.428C383.298 273.686 383.17 273.911 382.977 273.911C382.816 273.911 382.591 274.264 382.463 274.682C382.366 275.132 382.077 275.55 381.82 275.647C381.562 275.743 381.37 275.968 381.37 276.161C381.37 276.386 387.06 276.483 398.891 276.483C414.258 276.483 416.412 276.418 416.412 276C416.412 275.743 416.541 275.518 416.701 275.518C416.862 275.518 417.087 275.165 417.184 274.714C417.312 274.264 417.537 273.911 417.698 273.911C417.891 273.911 418.02 273.686 418.02 273.428C418.02 273.139 418.212 272.85 418.47 272.753C418.727 272.657 419.016 272.239 419.113 271.789C419.241 271.371 419.466 271.017 419.627 271.017C419.82 271.017 419.949 270.792 419.949 270.535C419.949 270.246 420.174 269.956 420.431 269.86C420.688 269.731 420.913 269.313 420.913 268.895C420.913 268.413 421.106 268.124 421.395 268.124C421.717 268.124 421.877 267.802 421.877 267.159C421.877 266.549 422.038 266.195 422.328 266.195C422.585 266.195 422.874 265.745 423.003 265.23C423.131 264.684 423.356 264.266 423.517 264.266C423.678 264.266 423.806 264.041 423.806 263.784C423.806 263.527 424.031 263.302 424.289 263.302C424.61 263.302 424.771 262.98 424.771 262.337C424.771 261.694 424.932 261.373 425.253 261.373C425.542 261.373 425.735 261.083 425.735 260.569C425.735 260.054 425.928 259.765 426.218 259.765C426.475 259.765 426.7 259.476 426.7 259.122C426.7 258.768 426.925 258.479 427.182 258.479C427.471 258.479 427.664 258.19 427.664 257.675C427.664 257.161 427.857 256.872 428.147 256.872C428.404 256.872 428.629 256.582 428.629 256.229C428.629 255.875 428.757 255.586 428.95 255.586C429.111 255.586 429.336 255.232 429.465 254.782C429.561 254.332 429.786 253.978 429.915 253.978C430.043 253.978 430.268 253.592 430.397 253.11C430.493 252.628 430.944 251.921 431.394 251.503C431.812 251.117 432.165 250.506 432.165 250.12C432.165 249.767 432.358 249.381 432.615 249.284C432.872 249.188 433.162 248.77 433.258 248.32C433.387 247.902 433.612 247.548 433.773 247.548C433.966 247.548 434.094 247.323 434.094 247.066C434.094 246.777 434.319 246.487 434.576 246.391C434.834 246.262 435.059 245.845 435.059 245.427C435.059 244.944 435.252 244.655 435.541 244.655C435.798 244.655 436.023 244.366 436.023 244.044C436.023 243.691 436.248 243.208 436.505 242.919C436.763 242.662 436.988 242.276 436.988 242.083C436.988 241.89 437.213 241.665 437.47 241.569C437.727 241.44 437.952 241.022 437.952 240.604C437.952 240.122 438.145 239.833 438.434 239.833C438.756 239.833 438.917 239.511 438.917 238.868C438.917 238.225 439.077 237.904 439.399 237.904C439.656 237.904 439.881 237.679 439.881 237.421C439.881 237.164 440.106 236.939 440.363 236.939C440.62 236.939 440.845 237.164 440.845 237.421C440.845 237.679 441.071 237.904 441.328 237.904C441.649 237.904 441.81 238.225 441.81 238.868C441.81 239.511 441.971 239.833 442.292 239.833C442.549 239.833 442.774 239.993 442.774 240.186C442.774 240.379 442.999 240.733 443.257 240.99C443.514 241.279 443.739 241.762 443.739 242.115C443.739 242.437 443.964 242.726 444.221 242.726C444.51 242.726 444.703 243.015 444.703 243.498C444.703 243.916 444.928 244.334 445.186 244.462C445.443 244.559 445.668 244.848 445.668 245.137C445.668 245.394 445.796 245.619 445.989 245.619C446.15 245.619 446.375 245.973 446.504 246.423C446.6 246.873 446.825 247.227 446.954 247.227C447.115 247.227 447.307 247.645 447.436 248.191C447.565 248.706 447.854 249.156 448.111 249.156C448.368 249.156 448.561 249.381 448.561 249.638C448.561 249.895 448.69 250.12 448.851 250.12C449.011 250.12 449.236 250.538 449.365 251.085C449.494 251.599 449.719 252.049 449.879 252.049C450.04 252.049 450.169 252.274 450.169 252.532C450.169 252.789 450.394 253.014 450.651 253.014C450.972 253.014 451.133 253.335 451.133 253.978C451.133 254.621 451.294 254.943 451.615 254.943C451.905 254.943 452.098 255.232 452.098 255.746C452.098 256.261 452.291 256.55 452.58 256.55C452.837 256.55 453.062 256.84 453.062 257.193C453.062 257.547 453.287 257.836 453.544 257.836C453.834 257.836 454.027 258.125 454.027 258.64C454.027 259.154 454.22 259.444 454.509 259.444C454.83 259.444 454.991 259.765 454.991 260.408C454.991 261.051 455.152 261.373 455.473 261.373C455.731 261.373 455.956 261.565 455.956 261.823C455.956 262.08 456.181 262.337 456.438 262.466C456.695 262.562 456.92 263.012 456.92 263.462C456.92 263.977 457.113 264.266 457.402 264.266C457.724 264.266 457.885 264.587 457.885 265.23C457.885 265.873 458.045 266.195 458.367 266.195C458.624 266.195 458.849 266.42 458.849 266.677C458.849 266.934 458.978 267.159 459.17 267.159C459.331 267.159 459.556 267.513 459.685 267.931C459.781 268.381 460.071 268.799 460.328 268.895C460.585 268.992 460.778 269.281 460.778 269.571C460.778 269.828 460.939 270.053 461.099 270.053C461.292 270.053 461.421 270.246 461.421 270.503C461.421 270.76 461.614 271.178 461.871 271.403C462.096 271.66 462.418 272.207 462.546 272.625C462.675 273.043 463.125 273.686 463.511 274.071C463.929 274.425 464.379 275.132 464.475 275.615L464.7 276.483H482.35C492.509 276.483 500 276.354 500 276.193C500 276.033 499.775 275.84 499.518 275.711C499.26 275.615 499.035 275.325 499.035 275.036C499.035 274.779 498.907 274.554 498.714 274.554C498.553 274.554 498.328 274.2 498.2 273.75C498.103 273.3 497.878 272.946 497.717 272.946C497.557 272.946 497.428 272.721 497.428 272.464C497.428 272.207 497.235 271.982 496.978 271.982C496.721 271.982 496.431 271.532 496.303 271.017C496.174 270.471 495.949 270.053 495.788 270.053C495.628 270.053 495.499 269.828 495.499 269.571C495.499 269.313 495.274 269.088 495.017 269.088C494.76 269.088 494.535 268.799 494.535 268.478C494.535 268.124 494.31 267.642 494.052 267.352C493.795 267.095 493.57 266.741 493.57 266.549C493.57 266.356 493.345 266.195 493.088 266.195C492.766 266.195 492.606 265.873 492.606 265.23C492.606 264.587 492.445 264.266 492.123 264.266C491.866 264.266 491.641 264.041 491.641 263.784C491.641 263.527 491.416 263.302 491.159 263.302C490.87 263.302 490.677 263.012 490.677 262.498C490.677 261.983 490.484 261.694 490.194 261.694C489.937 261.694 489.712 261.405 489.712 261.051C489.712 260.697 489.487 260.408 489.23 260.408C488.941 260.408 488.748 260.119 488.748 259.604C488.748 259.09 488.555 258.801 488.265 258.801C488.008 258.801 487.783 258.608 487.783 258.351C487.783 258.093 487.558 257.836 487.301 257.708C487.044 257.611 486.819 257.322 486.819 257.032C486.819 256.775 486.69 256.55 486.497 256.55C486.337 256.55 486.111 256.197 485.983 255.746C485.886 255.296 485.661 254.943 485.533 254.943C485.372 254.943 485.179 254.493 485.051 253.978C484.922 253.432 484.633 253.014 484.375 253.014C484.118 253.014 483.925 252.789 483.925 252.532C483.925 252.274 483.797 252.049 483.604 252.049C483.443 252.049 483.282 251.824 483.282 251.567C483.282 251.31 483.057 251.085 482.8 251.085C482.511 251.085 482.318 250.795 482.318 250.281C482.318 249.831 482.093 249.381 481.836 249.284C481.578 249.156 481.353 248.738 481.353 248.32C481.353 247.838 481.161 247.548 480.871 247.548C480.614 247.548 480.389 247.356 480.389 247.098C480.389 246.841 480.164 246.584 479.907 246.455C479.649 246.359 479.424 246.07 479.424 245.78C479.424 245.523 479.296 245.298 479.103 245.298C478.942 245.298 478.717 244.944 478.589 244.494C478.492 244.044 478.203 243.691 477.946 243.691C477.656 243.691 477.496 243.337 477.496 242.726C477.496 242.083 477.335 241.762 477.013 241.762C476.756 241.762 476.531 241.537 476.531 241.279C476.531 241.022 476.306 240.797 476.049 240.797C475.792 240.797 475.567 240.572 475.567 240.315C475.567 240.058 475.438 239.833 475.277 239.833C475.116 239.833 474.891 239.383 474.763 238.868C474.634 238.322 474.409 237.904 474.248 237.904C474.088 237.904 473.895 237.55 473.766 237.132C473.67 236.682 473.38 236.264 473.123 236.168C472.866 236.071 472.673 235.782 472.673 235.492C472.673 235.235 472.545 235.01 472.384 235.01C472.223 235.01 471.966 234.689 471.869 234.303C471.741 233.949 471.291 233.306 470.905 232.921C470.487 232.567 470.037 231.86 469.94 231.377C469.812 230.895 469.587 230.509 469.426 230.509C469.265 230.509 469.137 230.284 469.137 230.027C469.137 229.77 468.944 229.545 468.687 229.545C468.429 229.545 468.14 229.095 468.011 228.58C467.883 228.034 467.658 227.616 467.497 227.616C467.336 227.616 467.208 227.391 467.208 227.134C467.208 226.877 466.983 226.651 466.726 226.651C466.436 226.651 466.243 226.362 466.243 225.88C466.243 225.462 466.018 225.044 465.761 224.915C465.504 224.819 465.279 224.53 465.279 224.24C465.279 223.983 465.054 223.758 464.797 223.758C464.539 223.758 464.314 223.533 464.314 223.276C464.314 223.019 464.186 222.794 463.993 222.794C463.832 222.794 463.607 222.44 463.478 222.022C463.382 221.572 463.093 221.154 462.835 221.058C462.578 220.961 462.385 220.672 462.385 220.382C462.385 220.125 462.257 219.9 462.064 219.9C461.903 219.9 461.678 219.546 461.55 219.096C461.453 218.646 461.164 218.293 460.907 218.293C460.649 218.293 460.456 218.068 460.456 217.81C460.456 217.553 460.328 217.328 460.135 217.328C459.974 217.328 459.813 217.103 459.813 216.846C459.813 216.621 459.588 216.267 459.267 216.107C458.656 215.753 458.527 213.727 459.106 213.535C459.331 213.47 459.492 213.213 459.492 212.956C459.492 212.699 459.685 212.506 459.942 212.506C460.199 212.506 460.489 212.056 460.617 211.541C460.746 210.995 460.971 210.577 461.132 210.577C461.292 210.577 461.421 210.352 461.421 210.095C461.421 209.837 461.646 209.612 461.903 209.612C462.225 209.612 462.385 209.291 462.385 208.648C462.385 208.037 462.546 207.683 462.835 207.683C463.093 207.683 463.382 207.33 463.478 206.88C463.607 206.43 463.832 206.076 463.993 206.076C464.186 206.076 464.314 205.851 464.314 205.594C464.314 205.337 464.539 205.112 464.797 205.112C465.054 205.112 465.279 204.822 465.279 204.469C465.279 204.115 465.504 203.826 465.761 203.826C466.05 203.826 466.243 203.536 466.243 203.022C466.243 202.507 466.436 202.218 466.726 202.218C466.983 202.218 467.208 202.025 467.208 201.768C467.208 201.511 467.433 201.254 467.69 201.125C467.947 201.029 468.172 200.578 468.172 200.128C468.172 199.614 468.365 199.325 468.654 199.325C468.912 199.325 469.137 199.1 469.137 198.842C469.137 198.585 469.265 198.36 469.426 198.36C469.587 198.36 469.812 197.974 469.94 197.492C470.037 197.01 470.487 196.303 470.905 195.949C471.291 195.563 471.741 194.92 471.869 194.567C471.966 194.181 472.223 193.859 472.384 193.859C472.545 193.859 472.673 193.634 472.673 193.377C472.673 193.088 472.866 192.798 473.123 192.702C473.38 192.605 473.67 192.188 473.766 191.737C473.895 191.32 474.12 190.966 474.281 190.966C474.473 190.966 474.602 190.741 474.602 190.484C474.602 190.194 474.827 189.905 475.084 189.809C475.342 189.68 475.567 189.262 475.567 188.844C475.567 188.362 475.759 188.072 476.049 188.072C476.306 188.072 476.531 187.847 476.531 187.59C476.531 187.333 476.756 187.108 477.013 187.108C477.335 187.108 477.496 186.786 477.496 186.144C477.496 185.501 477.656 185.179 477.978 185.179C478.235 185.179 478.46 184.954 478.46 184.697C478.46 184.44 478.685 184.215 478.942 184.215C479.232 184.215 479.424 183.925 479.424 183.411C479.424 182.896 479.617 182.607 479.907 182.607C480.164 182.607 480.389 182.318 480.389 181.964C480.389 181.61 480.614 181.321 480.871 181.321C481.161 181.321 481.353 181.032 481.353 180.55C481.353 180.132 481.578 179.714 481.836 179.585C482.093 179.489 482.318 179.199 482.318 178.91C482.318 178.653 482.543 178.428 482.8 178.428C483.057 178.428 483.282 178.138 483.282 177.785C483.282 177.399 483.636 176.788 484.054 176.402C484.504 175.984 484.954 175.277 485.051 174.795C485.179 174.313 485.404 173.927 485.565 173.927C485.726 173.927 485.854 173.702 485.854 173.445C485.854 173.187 486.047 172.962 486.304 172.962C486.562 172.962 486.851 172.512 486.98 171.998C487.108 171.451 487.333 171.033 487.494 171.033C487.655 171.033 487.783 170.808 487.783 170.551C487.783 170.294 487.976 170.069 488.233 170.069C488.491 170.069 488.78 169.715 488.876 169.265C489.005 168.815 489.23 168.461 489.391 168.461C489.584 168.461 489.712 168.172 489.712 167.818C489.712 167.465 489.937 167.176 490.194 167.176C490.484 167.176 490.677 166.886 490.677 166.372C490.677 165.857 490.87 165.568 491.159 165.568C491.416 165.568 491.641 165.279 491.641 164.925C491.641 164.571 491.866 164.282 492.123 164.282C492.413 164.282 492.606 163.993 492.606 163.478C492.606 162.964 492.799 162.675 493.088 162.675C493.345 162.675 493.57 162.45 493.57 162.192C493.57 161.935 493.795 161.71 494.052 161.71C494.374 161.71 494.535 161.389 494.535 160.746C494.535 160.103 494.695 159.781 495.017 159.781C495.274 159.781 495.499 159.556 495.499 159.299C495.499 159.042 495.628 158.817 495.788 158.817C495.949 158.817 496.174 158.367 496.303 157.852C496.431 157.306 496.721 156.888 496.978 156.888C497.235 156.888 497.428 156.663 497.428 156.406C497.428 156.148 497.589 155.923 497.749 155.923C497.942 155.923 498.071 155.698 498.071 155.441C498.071 155.023 495.949 154.959 480.871 154.959C464.764 154.959 463.639 154.991 463.446 155.505C463.318 155.827 463.028 156.277 462.803 156.502C462.578 156.727 462.385 157.145 462.385 157.402C462.385 157.659 462.257 157.852 462.096 157.852C461.935 157.852 461.71 158.27 461.582 158.817C461.453 159.331 461.228 159.781 461.067 159.781C460.907 159.781 460.778 160.006 460.778 160.263C460.778 160.521 460.553 160.746 460.296 160.746C460.006 160.746 459.813 161.035 459.813 161.549C459.813 161.999 459.588 162.45 459.331 162.546C459.074 162.675 458.849 162.932 458.849 163.189C458.849 163.446 458.624 163.639 458.367 163.639C458.077 163.639 457.885 163.928 457.885 164.443C457.885 164.893 457.659 165.343 457.402 165.439C457.145 165.568 456.92 165.986 456.92 166.404C456.92 166.886 456.727 167.176 456.438 167.176C456.181 167.176 455.956 167.465 455.956 167.818C455.956 168.172 455.731 168.461 455.473 168.461C455.184 168.461 454.991 168.751 454.991 169.265C454.991 169.78 454.798 170.069 454.509 170.069C454.187 170.069 454.027 170.39 454.027 171.033C454.027 171.676 453.866 171.998 453.544 171.998C453.287 171.998 453.062 172.223 453.062 172.48C453.062 172.737 452.934 172.962 452.773 172.962C452.612 172.962 452.387 173.348 452.291 173.798C452.162 174.28 451.84 174.859 451.615 175.116C451.358 175.374 451.133 175.856 451.133 176.209C451.133 176.531 451.005 176.82 450.812 176.82C450.651 176.82 450.426 177.174 450.297 177.592C450.201 178.042 449.912 178.46 449.654 178.556C449.397 178.653 449.204 178.942 449.204 179.231C449.204 179.489 449.076 179.714 448.915 179.714C448.754 179.714 448.529 180.067 448.433 180.517C448.304 180.967 448.111 181.321 447.95 181.321C447.79 181.321 447.565 181.739 447.436 182.286C447.307 182.8 447.082 183.25 446.922 183.25C446.761 183.25 446.632 183.475 446.632 183.732C446.632 183.99 446.407 184.215 446.15 184.215C445.829 184.215 445.668 184.536 445.668 185.179C445.668 185.822 445.507 186.144 445.186 186.144C444.896 186.144 444.703 186.433 444.703 186.947C444.703 187.397 444.478 187.847 444.221 187.944C443.964 188.072 443.739 188.33 443.739 188.587C443.739 188.844 443.514 189.037 443.257 189.037C442.935 189.037 442.774 189.358 442.774 190.001C442.774 190.612 442.614 190.966 442.324 190.966C442.035 190.966 441.81 191.352 441.746 191.834C441.681 192.541 441.456 192.766 440.781 192.831C440.042 192.927 439.881 192.798 439.881 192.284C439.881 191.898 439.656 191.609 439.399 191.609C439.109 191.609 438.917 191.32 438.917 190.805C438.917 190.291 438.724 190.001 438.434 190.001C438.113 190.001 437.952 189.68 437.952 189.037C437.952 188.394 437.791 188.072 437.47 188.072C437.213 188.072 436.988 187.783 436.988 187.429C436.988 187.076 436.859 186.786 436.666 186.786C436.505 186.786 436.28 186.433 436.152 185.983C436.055 185.533 435.766 185.179 435.509 185.179C435.219 185.179 435.059 184.825 435.059 184.215C435.059 183.572 434.898 183.25 434.576 183.25C434.319 183.25 434.094 183.025 434.094 182.768C434.094 182.511 433.966 182.286 433.805 182.286C433.644 182.286 433.419 181.836 433.29 181.321C433.162 180.775 432.937 180.357 432.776 180.357C432.615 180.357 432.422 180.003 432.294 179.553C432.197 179.103 431.972 178.749 431.844 178.749C431.683 178.749 431.49 178.299 431.361 177.785C431.233 177.238 431.04 176.82 430.879 176.82C430.718 176.82 430.526 176.37 430.397 175.856C430.268 175.309 430.043 174.891 429.883 174.891C429.722 174.891 429.593 174.666 429.593 174.409C429.593 174.152 429.368 173.927 429.111 173.927C428.822 173.927 428.629 173.637 428.629 173.123C428.629 172.673 428.436 172.223 428.179 172.126C427.921 172.03 427.632 171.612 427.536 171.162C427.407 170.744 427.182 170.39 427.021 170.39C426.828 170.39 426.7 170.101 426.7 169.747C426.7 169.394 426.475 169.104 426.218 169.104C425.928 169.104 425.735 168.815 425.735 168.333C425.735 167.915 425.51 167.497 425.253 167.368C424.996 167.272 424.771 166.822 424.771 166.372C424.771 165.857 424.578 165.568 424.289 165.568C424.031 165.568 423.806 165.279 423.806 164.925C423.806 164.571 423.581 164.282 423.324 164.282C423.035 164.282 422.842 163.993 422.842 163.478C422.842 162.964 422.649 162.675 422.36 162.675C422.038 162.675 421.877 162.353 421.877 161.71C421.877 161.067 421.717 160.746 421.395 160.746C421.138 160.746 420.913 160.521 420.913 160.263C420.913 160.006 420.784 159.781 420.624 159.781C420.463 159.781 420.238 159.331 420.109 158.817C419.981 158.27 419.756 157.852 419.595 157.852C419.434 157.852 419.241 157.499 419.113 157.081C419.016 156.631 418.727 156.213 418.47 156.116C418.212 156.02 418.02 155.698 418.02 155.441C418.02 154.959 416.38 154.927 400.305 155.023C390.564 155.087 382.559 155.216 382.495 155.312Z" fill="#3C6ADF"/>
<path d="M336.103 202.02C336.007 218.835 335.878 224.92 335.621 225.1C335.332 225.279 335.332 225.399 335.653 225.519C336.135 225.699 336.232 231.903 335.717 231.903C335.492 231.903 335.396 239.547 335.396 254.233V276.563H350.024H364.652V228.307C364.652 196.326 364.748 180.05 364.973 180.05C365.166 180.05 365.295 179.841 365.295 179.601C365.295 179.211 363.462 179.151 350.763 179.151H336.2L336.103 202.02Z" fill="#3C6ADF"/>
<path d="M335.396 154.316H365.295V171.918H335.396V154.316Z" fill="#3C6ADF"/>
</svg>
